<?xml version="1.0" encoding="UTF-8"?>
<svg width="612px" height="868px" viewBox="0 0 612 868" version="1.1" xmlns="http://www.w3.org/2000/svg" xmlns:xlink="http://www.w3.org/1999/xlink">
    <!-- Generator: Sketch 51.1 (57501) - http://www.bohemiancoding.com/sketch -->
    <title>Early Bird menu</title>
    <desc>Created with Sketch.</desc>
    <defs></defs>
    <g id="Early-Bird-menu" stroke="none" stroke-width="1" fill="none" fill-rule="evenodd">
        <rect fill="#FFFFFF" x="0" y="0" width="612" height="868"></rect>
        <rect id="Rectangle" stroke="#000000" stroke-width="2" fill-rule="nonzero" x="36" y="58" width="540" height="774"></rect>
        <g id="Group" transform="translate(166.000000, 18.000000)">
            <g id="Group-2">
                <rect id="Rectangle-2" fill="#FFFFFF" fill-rule="nonzero" x="0" y="0" width="281" height="69"></rect>
                <text id="Early-Bird-Menu" font-family="PlayfairDisplay-Regular, Playfair Display" font-size="24" font-weight="normal" letter-spacing="4.69999981" fill="#000000">
                    <tspan x="20" y="46">Early Bird Men</tspan>
                    <tspan x="245.807997" y="46">u</tspan>
                </text>
            </g>
        </g>
        <g id="Group-3" transform="translate(195.000000, 97.000000)" fill="#000000" font-family="Roboto-Regular, Roboto" font-size="10" font-weight="normal" letter-spacing="1.333334">
            <text id="Wednesday-to-Friday">
                <tspan x="0.280424531" y="10">Wednesday to Friday 5:00pm - 6:30pm</tspan>
                <tspan x="29.9838777" y="23">2 course €28 | 3 course €32 </tspan>
                <tspan x="48.1733328" y="36">tea &amp; coffee included</tspan>
            </text>
        </g>
        <text id="Starters" font-family="PlayfairDisplay-SemiBold, Playfair Display" font-size="14" font-weight="500" letter-spacing="1.4" fill="#000000">
            <tspan x="275" y="171">Starters</tspan>
        </text>
        <text id="Mains" font-family="PlayfairDisplay-SemiBold, Playfair Display" font-size="14" font-weight="500" letter-spacing="1.4" fill="#000000">
            <tspan x="283" y="318">Mains</tspan>
        </text>
        <text id="Dessert" font-family="PlayfairDisplay-SemiBold, Playfair Display" font-size="14" font-weight="500" letter-spacing="1.4" fill="#000000">
            <tspan x="274" y="594">Dessert </tspan>
        </text>
        <text id="Sides" font-family="PlayfairDisplay-SemiBold, Playfair Display" font-size="14" font-weight="500" letter-spacing="1.4" fill="#000000">
            <tspan x="283" y="501">Sides </tspan>
        </text>
        <text id="Ham-hock-terrine-bas" font-family="Roboto-Regular, Roboto" font-size="10" font-weight="normal" letter-spacing="1.333334" fill="#000000">
            <tspan x="256.715164" y="195">Ham hock terrine</tspan>
            <tspan x="355.284836" y="195" font-family="Roboto-Light, Roboto" font-weight="300"></tspan>
            <tspan x="170.289046" y="208" font-family="Roboto-Light, Roboto" font-weight="300">basil purée, watercress salad, grilled sourdough</tspan>
        </text>
        <text id="Burrata-&amp;-Burnt-peac" font-family="Roboto-Regular, Roboto" font-size="10" font-weight="normal" letter-spacing="1.333334" fill="#000000">
            <tspan x="224.955557" y="231">Burrata &amp; Burnt peach salad</tspan>
            <tspan x="387.044443" y="231" font-family="Roboto-Light, Roboto" font-weight="300"></tspan>
            <tspan x="112.012348" y="244" font-family="Roboto-Light, Roboto" font-weight="300">orange segments and shaved fennel, red radish &amp; heirloom tomatoes </tspan>
        </text>
        <text id="Smoked-haddock-brûlé" font-family="Roboto-Regular, Roboto" font-size="10" font-weight="normal" letter-spacing="1.333334" fill="#000000">
            <tspan x="237.905755" y="267">Smoked haddock brûlée </tspan>
            <tspan x="377.912931" y="267" font-family="Roboto-Light, Roboto" font-weight="300"></tspan>
            <tspan x="165.262191" y="280" font-family="Roboto-Light, Roboto" font-weight="300">with grilled sourdough &amp; pickeled cucumber salad</tspan>
        </text>
        <text id="Mushroom-and-truffle" font-family="Roboto-Regular, Roboto" font-size="10" font-weight="normal" letter-spacing="1.333334" fill="#000000">
            <tspan x="222.394359" y="342">Mushroom and truffle risotto</tspan>
        </text>
        <text id="Moules-mariniere-Iri" font-family="Roboto-Regular, Roboto" font-size="10" font-weight="normal" letter-spacing="1.333334" fill="#000000">
            <tspan x="256.346512" y="365">Moules mariniere</tspan>
            <tspan x="355.653488" y="365" font-family="Roboto-Light, Roboto" font-weight="300"> </tspan>
            <tspan x="144.899395" y="378" font-family="Roboto-Light, Roboto" font-weight="300">Irish rope mussels served with chips, shallots and butter</tspan>
        </text>
        <text id="Prawn-linguine-pasta" font-family="Roboto-Regular, Roboto" font-size="10" font-weight="normal" letter-spacing="1.333334" fill="#000000">
            <tspan x="245.415683" y="401">Prawn linguine pasta</tspan>
            <tspan x="366.584317" y="401" font-family="Roboto-Light, Roboto" font-weight="300"></tspan>
            <tspan x="199.155424" y="414" font-family="Roboto-Light, Roboto" font-weight="300">garlic chili, lemon parsley &amp; tomatoes</tspan>
        </text>
        <text id="Lamb-shoulder-6-hour" font-family="Roboto-Regular, Roboto" font-size="10" font-weight="normal" letter-spacing="1.333334" fill="#000000">
            <tspan x="263.829911" y="437">Lamb shoulder</tspan>
            <tspan x="348.170089" y="437" font-family="Roboto-Light, Roboto" font-weight="300"></tspan>
            <tspan x="109.64109" y="450" font-family="Roboto-Light, Roboto" font-weight="300">6 hour slow roasted lamb shoulder, mint purée, baby potatoes, grilled </tspan>
            <tspan x="249.185378" y="463" font-family="Roboto-Light, Roboto" font-weight="300">asparagus, lamb jus  </tspan>
        </text>
        <text id="Lemon-tart" font-family="Roboto-Regular, Roboto" font-size="10" font-weight="normal" letter-spacing="1.333334" fill="#000000">
            <tspan x="275" y="618">Lemon tart</tspan>
        </text>
        <text id="Strawberry-mess" font-family="Roboto-Regular, Roboto" font-size="10" font-weight="normal" letter-spacing="1.333334" fill="#000000">
            <tspan x="258" y="651">Strawberry mess</tspan>
        </text>
        <text id="Boozy-Icecream" font-family="Roboto-Regular, Roboto" font-size="10" font-weight="normal" letter-spacing="1.333334" fill="#000000">
            <tspan x="261" y="684">Boozy Icecream</tspan>
        </text>
        <text id="rum&amp;-raisin-dark-cho" font-family="Roboto-Light, Roboto" font-size="10" font-weight="300" letter-spacing="1.333334" fill="#000000">
            <tspan x="273.468909" y="702">rum&amp; raisin</tspan>
            <tspan x="234.411613" y="715">dark chocolate &amp; whiskey</tspan>
            <tspan x="287.532388" y="728">cosmo</tspan>
            <tspan x="261.995763" y="741">(mix or all of 1)</tspan>
            <tspan x="350.004237" y="741" font-family="Roboto-Regular, Roboto" font-weight="normal" letter-spacing="1.111112"> </tspan>
        </text>
        <text id="Chips-|-Green-Salad" font-family="Roboto-Light, Roboto" font-size="10" font-weight="300" letter-spacing="1.333334" fill="#000000">
            <tspan x="140.156554" y="525">Chips | Green Salad | Asparagus, green beans &amp; toasted almonds | </tspan>
            <tspan x="264.504388" y="538">Baby potatoes in mint</tspan>
        </text>
        <text id="4.50" font-family="Roboto-Light, Roboto" font-size="10" font-weight="300" letter-spacing="1" fill="#000000">
            <tspan x="294" y="556">4.50</tspan>
        </text>
        <g id="Group-3-Copy-2" transform="translate(306.000000, 803.500000) scale(-1, 1) translate(-306.000000, -803.500000) translate(279.000000, 775.000000)" fill="#000000">
            <path d="M14.886218,39.2878881 C15.0732089,39.0080855 16.077165,38.0726833 16.3974431,37.7515958 C16.9176547,37.2300314 17.3652993,36.6959861 17.8775013,36.1843222 C18.2381503,35.8239017 20.5142211,33.1253983 20.5142211,32.7669579 C20.5142211,32.7251001 20.5142211,32.6834192 20.5142211,32.6415207 C20.4069647,32.6803632 19.835397,33.4835241 19.7144257,33.6370201 C19.4660488,33.9527861 19.1007133,34.2709848 18.8884749,34.5643681 C18.7341693,34.7775815 18.2622819,35.2463969 18.0451525,35.4744677 C17.7518944,35.7824654 17.4888141,36.0718143 17.1895113,36.3721382 C15.4507241,38.1172867 13.4001157,39.7232517 11.4375769,41.2222566 C10.808348,41.7025459 10.0494639,42.2478371 9.37506959,42.6654908 C8.64244761,43.1187555 7.91392845,43.5175706 7.14637054,43.9421513 C6.83213543,44.1159383 4.96428601,45.0151439 4.96428601,45.2653546 C4.96428601,45.5909536 5.39103444,45.934223 5.71460657,45.934223 C5.91608329,45.934223 6.6276907,45.3524379 6.78840287,45.2133407 C7.12539005,44.9219665 7.49941276,44.7800427 7.88317795,44.5555423 C8.67303978,44.0931119 9.3124878,43.6952316 10.0669009,43.1920987 C11.4802469,42.2495688 12.6628471,41.0683431 14.2191482,40.2910416 C16.4139302,39.1950812 18.7548992,38.7451179 21.1484752,38.3770771 C21.7221438,38.2888935 22.2276926,38.3707075 22.8076497,38.3679505 C23.1748556,38.3659676 24.0943074,38.4574515 24.391428,38.5354356 C24.6414853,38.6011285 25.6444921,38.8561453 25.8087839,38.869808 C25.7706377,38.4103789 23.8484238,38.2199542 23.2691688,38.1558354 C20.110816,37.8061985 17.8113158,38.6045775 14.8861973,39.2878792 L14.886218,39.2878881 Z M21.315049,32.4396232 C21.4332684,32.2377228 22.1750374,31.4614962 22.3876131,31.2132552 C22.4134007,31.1832133 23.0434965,30.8542319 23.1747661,30.7789224 C23.4553811,30.6180106 23.7006018,30.4380987 23.982206,30.2757067 C25.0389164,29.6662311 26.1778416,28.9006929 27.4969673,28.4565664 C27.9720409,28.2966461 28.4471661,28.1366443 28.9223327,27.9766842 C29.3935444,27.8179864 30.2086633,27.6774466 30.6772041,27.6130832 C31.0363352,27.5636606 32.2086336,27.5588935 32.3220015,27.5235007 C31.6731088,27.1934876 28.7856592,27.8152277 28.3020977,27.9780831 C28.1987847,28.0128512 28.0955527,28.0475382 27.9921991,28.0824015 C27.0576784,28.3970946 26.0318941,28.8552599 25.2708105,29.2878265 C24.8748642,29.5127198 24.4727912,29.7266405 24.058482,29.95141 C23.6821411,30.1555781 23.1638709,30.5079333 22.8507727,30.6432841 C23.0307034,30.336115 23.3726226,29.9452041 23.5961196,29.6174588 C23.7868099,29.3374523 24.6432751,29.1062571 25.0793891,28.9594568 C25.7407211,28.7309372 26.3010006,28.383267 27.0713499,28.3182961 C26.6652119,28.0570455 24.195128,29.1885625 23.8501331,29.3041503 C23.8907321,29.1546469 24.0798232,28.9443542 24.1838001,28.7976885 C24.34915,28.5642252 24.3452065,28.485209 24.7069511,28.3596507 C25.1259895,28.2142489 25.7162037,27.917456 26.1824968,27.7237852 C26.6754824,27.5190058 27.1710185,27.332711 27.7007402,27.1089971 C27.8807927,27.0329146 29.145618,26.5724784 29.1769915,26.4734318 C29.1320698,26.4648348 29.1334249,26.4534265 29.073597,26.4735948 C29.0490425,26.4710822 29.0245287,26.4685697 29.0000147,26.4660707 C27.5050494,27.0902832 26.0100462,27.7143578 24.5150327,28.3385289 C24.5746437,28.2542975 24.8827687,27.8077435 24.9684632,27.7412341 C25.3238942,27.5899109 27.9679178,26.334994 28.814066,26.0077799 C27.4347335,26.2766361 26.2966344,27.0348024 25.0656299,27.5810284 C25.1313659,27.374103 25.6150705,26.6764034 25.7612851,26.4695169 C26.2913063,26.1763365 29.1371873,25.0606827 29.078932,25.0549528 C28.7903086,25.1319589 26.566949,25.8950934 25.8696141,26.3135889 C25.954159,26.1379008 26.3558121,25.4178846 26.4349773,25.3912257 C27.2605598,25.109603 28.0861045,24.8279548 28.9116457,24.5462211 C29.1569465,24.490497 29.4021255,24.4346912 29.6473035,24.3788447 C29.6782947,24.3684413 29.7092995,24.357943 29.7402637,24.3475261 C29.661261,24.2280647 29.2573459,24.3763321 29.1106287,24.4199962 C28.8440934,24.4994336 28.6682676,24.5356005 28.3868423,24.6303302 C28.0656964,24.7356942 27.7445099,24.8410041 27.4233781,24.9463543 C27.1085197,25.0691567 26.7935814,25.1919594 26.4786417,25.3146262 C26.4678008,25.3070206 26.4570413,25.2994015 26.4461192,25.2916737 C26.6025117,24.992572 26.5954109,24.9425647 26.9018145,24.8295159 C27.5158918,24.6025583 28.0841015,24.3784798 28.6750488,24.1529203 C28.7680631,24.1216425 28.8609827,24.0903645 28.9539019,24.0590868 C28.7857066,23.8045995 27.0170401,24.6855657 26.7142815,24.8059382 C26.7489858,24.7331828 26.7618323,24.6448228 26.8184619,24.5875367 C27.2396274,24.1604447 31.4737178,22.5452311 32.2365946,22.2278072 C31.8334512,22.1776919 27.6959561,24.1023455 26.9802686,24.3432905 C27.1694682,23.6464867 30.1576348,22.0634033 31.2945292,21.68056 C31.8109993,21.5065968 33.1551549,21.666191 33.613924,21.7405624 C33.9422116,21.7937741 34.3338623,21.9167396 34.6185024,22.0573198 C34.8020781,22.1479345 34.9093755,22.1984706 35.0944812,22.294803 C35.2363875,22.3686313 35.385395,22.5804187 35.5761668,22.5210273 C35.4308592,22.0875257 34.2819196,21.713317 33.899958,21.6321154 C33.5478624,21.5571736 33.2949193,21.5188607 32.9167473,21.4803439 C32.7176012,21.4600533 31.9779173,21.4539281 31.8649142,21.4266433 C32.1808025,21.3063534 32.4966109,21.1861044 32.8125247,21.0657744 C33.0294634,20.9926796 33.2463463,20.9197206 33.4632727,20.8467076 C33.8287576,20.7236199 34.3570577,20.5990113 34.7295642,20.531349 C34.9139261,20.4976944 35.0984223,20.4764531 35.3180987,20.4376921 C35.390773,20.4248441 35.5406881,20.4015113 35.6233493,20.3947614 C35.7655808,20.3831629 35.8717262,20.4506486 35.8810901,20.447525 C35.9524633,20.423486 35.9668273,20.3945986 35.942842,20.3229571 C35.8565354,20.065618 34.050736,20.476005 33.659099,20.6079749 C33.2459292,20.7469934 32.8327696,20.8860934 32.4196927,21.0251526 C30.5755849,21.6461052 29.1250415,22.6039964 27.510351,23.2872602 C27.6967591,22.9355708 27.8831397,22.583909 28.0695221,22.2321817 C28.5860748,21.9252161 29.1025449,21.6181698 29.619015,21.3112053 C28.9641194,21.531712 28.6036494,21.831383 28.1325066,22.1229206 C28.2945363,21.5262364 28.5446473,21.2922322 29.1751359,20.9346197 C29.6974883,20.6384378 30.1747028,20.2943145 30.8563596,20.0648018 C30.8494215,20.0440495 30.842524,20.0233517 30.8355452,20.0027758 C30.7632774,20.0270593 30.6909693,20.0513836 30.6186609,20.0757075 C30.2204773,20.2097823 29.8329432,20.4364143 29.5211219,20.6154724 C29.2530687,20.7695118 28.7573846,21.1323901 28.5540919,21.2203047 C28.6252889,20.9582392 28.7526553,20.6888121 29.0078081,20.5148492 C29.2596814,20.3430724 29.5025697,20.14814 29.7828867,19.9696132 C30.2143231,19.6952024 30.9426667,19.1503742 31.484153,18.9544473 C31.4772555,18.9337493 31.4702632,18.9129972 31.4634064,18.8923807 C30.5167459,19.2110396 29.6293285,20.0283364 28.8933712,20.4836916 C28.9421955,20.3037387 29.0842377,20.0262735 29.1715335,19.8460219 C29.3534699,19.470592 29.3482525,19.6000912 29.7341053,19.3501264 C30.0833028,19.1237118 30.8284742,18.6668212 31.2350321,18.5197346 C31.2280533,18.4991181 31.2211151,18.478298 31.214299,18.4576 C31.172738,18.4715481 31.1315969,18.4854146 31.0902527,18.4993219 C30.5729944,18.6735298 29.7525473,19.2440414 29.3250932,19.5085648 C29.396873,19.2444892 29.4270105,19.16914 29.6977753,18.9955969 C29.8944549,18.8697116 30.1239007,18.7229517 30.3566807,18.5994966 C30.5730367,18.4846799 30.8179727,18.3234831 31.0316188,18.2113029 C31.1805041,18.1332237 31.6979245,17.9690661 31.6880598,17.8139676 C31.6364844,17.8313653 31.5847469,17.8488582 31.5331849,17.8661879 C31.1999243,17.9783698 30.8285702,18.2247076 30.5167076,18.3945551 C30.2774777,18.5249629 29.7275892,18.9194208 29.5615764,18.9795036 C29.5403013,18.6421296 30.8504955,17.8339163 31.2337616,17.6134658 C31.8253319,17.2729275 32.5261639,16.6986264 33.2144775,16.4011691 C33.2075393,16.3804304 33.2005605,16.3597324 33.1936631,16.3390345 C32.736412,16.492979 31.7549085,17.1424258 31.3758312,17.3995048 C30.8454453,17.7592733 30.254319,18.2168569 29.7233651,18.5429843 C29.7517274,18.4553712 29.8076932,18.3759473 29.8360285,18.2882121 C30.1909294,16.7614236 32.5759383,15.7518565 33.6357844,15.3949788 C33.8320169,15.3289192 34.02833,15.2628323 34.2245219,15.196732 C33.550169,15.2840602 32.4853149,15.7407055 32.0705582,15.9603833 C31.6788249,16.1675802 31.3326769,16.2992375 31.0174929,16.5481708 C30.7876809,16.7295767 30.3640085,17.1683886 30.198278,17.2783983 C30.4285102,16.4305167 30.4675235,16.4516631 31.3321469,15.9545292 C31.7822181,15.6958047 32.6625726,15.1122154 33.1385686,14.9399773 C32.7057761,14.9412947 31.9673269,15.4788832 31.7907266,15.5879028 C31.5113854,15.7603723 30.8554624,16.1859841 30.5886001,16.2826022 C30.7491529,15.6914478 31.1719303,15.362916 31.6225729,14.9088786 C31.8086692,14.7212523 32.0785264,14.4365201 32.2838636,14.2812026 C32.3924751,14.1988589 33.1330649,13.7921788 33.1148259,13.7379364 C32.167539,14.0750658 31.3851566,14.8450461 31.2984328,14.9026589 C31.3409425,14.746202 31.7532333,14.202026 31.7410763,14.1658564 C31.7240426,14.1149808 31.6913168,14.0788542 31.6478724,14.0934269 C31.5009928,14.1428902 31.0542816,14.9656597 30.9268773,15.1314745 C30.6943007,14.4376306 30.9556191,13.3655866 30.7035834,12.6135884 C30.6833788,12.5535453 30.6066391,12.5078711 30.5688997,12.5206242 C30.4209087,12.5704135 30.5654984,12.7682798 30.5880338,12.9441734 C30.6100406,13.1155429 30.6174395,13.2093219 30.6374273,13.3827839 C30.665356,13.6249393 30.6715895,14.0227648 30.6716301,14.253754 C30.6714269,14.6523657 30.7462423,15.6317724 30.5602406,15.8776194 C30.3676531,15.1355906 30.1751193,14.393586 29.9824657,13.6515572 C29.8748434,13.804687 30.3989433,15.6139101 30.516717,15.9620291 C30.4080243,16.228495 30.2995346,16.4949188 30.1909365,16.7614257 C30.0289474,15.9288089 29.8669582,15.0962438 29.7049691,14.263627 C29.6778264,14.2718573 29.6508057,14.2800875 29.6237036,14.2882364 C29.7980921,15.164274 29.9724813,16.0402979 30.1468684,16.9161976 C30.0061137,17.286046 29.8653185,17.6558116 29.7245084,18.025698 C29.6427143,17.6921404 29.6500319,17.2073144 29.6275235,16.8903942 C29.5974673,16.4655306 29.4789636,16.1526844 29.4129023,15.6965807 C29.3752032,15.4366202 28.7736195,13.273236 28.7410964,13.2397433 C28.5017849,13.3986315 28.8632455,14.1988971 28.9378166,14.5540499 C29.0350859,15.0177566 29.1734693,15.4919365 29.3179643,15.9856864 C29.4554804,16.4554507 29.4330667,16.8706863 29.4682047,17.3026699 C29.4934638,17.615937 29.4519434,18.3438567 29.5199425,18.5713445 C29.4532579,18.7343613 29.386614,18.897446 29.320024,19.0604097 C29.2069001,18.7644044 29.093857,18.4684273 28.9807331,18.1724086 C28.9330199,18.0385373 28.8853473,17.9046253 28.837756,17.7706715 C28.7359606,17.4247017 28.6343683,17.0787146 28.5326679,16.7329069 C28.3866553,16.7807674 28.6682868,17.517325 28.7107014,17.6755195 C28.7184255,17.7075851 28.7263935,17.7395149 28.7341989,17.7717026 C28.9098609,18.2448752 29.0853859,18.718103 29.2610913,19.1914412 C29.1341317,19.4737973 29.0072127,19.7561954 28.8802931,20.0385777 C28.7383868,19.5446657 28.5963989,19.0509021 28.4544774,18.5569901 C28.329415,18.6399858 28.5228968,19.1563892 28.5685499,19.3125208 C28.6548565,19.6078742 28.7326394,19.9012191 28.8317111,20.1675604 C28.7615033,20.330808 28.691363,20.4941508 28.6211552,20.6573708 C28.6091625,20.6567868 28.5971292,20.6560534 28.585177,20.6553879 C28.4246786,20.0529462 28.2642476,19.4504665 28.1036945,18.847942 C27.946394,18.9524639 28.1647962,19.5474227 28.2404244,19.7700189 C28.3507569,20.0951697 28.4203958,20.409986 28.5643621,20.785102 C28.4166285,21.0824789 28.2687597,21.3799372 28.121106,21.67726 C27.9745517,21.2400914 27.752871,20.3684659 27.6677409,19.9245084 C27.6135774,19.6417857 27.5120801,19.3590229 27.4618598,19.0714765 C27.4205156,18.8350527 27.3845781,18.4514622 27.3061991,18.2174684 C27.134399,18.2754199 27.5827894,20.0768489 27.6727957,20.3410997 C27.801151,20.7174507 27.844474,21.0682708 27.965227,21.4185355 C28.1105485,21.8396113 28.0099454,22.0428687 27.7993082,22.3027902 C27.6399481,21.5731458 27.4805879,20.8436669 27.3212676,20.1141017 C27.2252585,20.4219635 27.4229274,20.9432965 27.4649359,21.220832 C27.5132318,21.5398169 27.6451241,22.109078 27.7622186,22.429993 C27.6201901,22.7129738 27.4782838,22.9958994 27.3362963,23.2787853 C27.3193304,23.275485 27.3023374,23.2720761 27.2854664,23.2686536 C27.0939903,22.1934877 26.9025686,21.1181563 26.7111335,20.0428283 C26.6173874,20.1762377 27.1120947,22.987834 27.2564679,23.3941729 C27.1852708,23.5306791 27.1140735,23.6672666 27.0429171,23.8038959 C26.9620581,23.4276381 26.8812126,23.0514078 26.8004077,22.6751086 C26.7899734,22.6440345 26.7795797,22.6129605 26.769159,22.5819405 C26.6540156,22.673628 26.9196027,23.6478026 27.0057871,23.8904482 C26.8288106,24.2008224 26.6519704,24.5111145 26.4751155,24.8214494 C26.4422677,24.1305791 26.4095419,23.4395742 26.3768161,22.7486522 C26.2347063,22.8429745 26.3386292,23.4119908 26.3489687,23.5887513 C26.3648234,23.8588435 26.3707316,24.1530433 26.3851905,24.4607012 C26.401777,24.8129736 26.4441104,24.9977063 26.2650877,25.2548025 C26.1323687,25.445498 26.0331751,25.732715 25.8883407,25.9210216 C25.8618213,25.6419658 25.902637,25.0654507 25.9114181,24.7679934 C25.9229229,24.3764294 25.9404986,24.0168231 25.9395094,23.6174767 C25.9385202,23.2344161 25.9114587,22.813868 25.8916743,22.4291378 C25.8574715,21.7627428 25.8175503,21.8727387 25.9900956,21.2878316 C26.1671127,20.687984 27.0813874,18.7107321 26.8913875,18.1438874 C26.805989,18.7366183 26.0559541,20.9200496 25.804498,21.2471291 C25.7148173,20.8811512 25.6895175,20.1719218 25.6192281,19.7056623 C25.5805398,19.4475491 25.4083331,18.7878216 25.0630515,18.2122045 C25.3324461,19.0157717 25.4005674,19.4919076 25.5187469,20.1990051 C25.5683979,20.4956351 25.5789406,20.8193471 25.6036171,21.1210405 C25.6174662,21.290264 25.6269926,21.422655 25.6396359,21.5789898 C25.6448124,21.6421293 25.6692855,21.7636008 25.6655048,21.8246763 C25.661846,21.8837279 25.6083059,21.999088 25.6204612,22.0351735 C25.9833165,23.1178769 25.650558,26.9166493 24.9329634,27.3765925 C24.8541641,26.4603559 24.7753782,25.5442918 24.6964571,24.6281794 C24.6702087,24.6356627 24.6439334,24.6430374 24.6176578,24.65048 C24.6961184,25.5904985 24.7746736,26.5304895 24.8531883,27.4705494 C24.8713331,27.4736731 24.8895998,27.4769326 24.9078398,27.4801786 C24.8097844,27.6108037 24.7116885,27.7414972 24.6135113,27.8720392 C24.5388179,27.1363785 24.4638399,26.4008559 24.3889434,25.6652331 C24.2664557,25.7465989 24.3578167,26.3276368 24.3759344,26.5126662 C24.4075897,26.8391752 24.4315614,27.1038621 24.4931646,27.4250737 C24.5657167,27.8031357 24.5803386,27.9617545 24.3855017,28.2254224 C24.2264668,28.4406053 24.0749932,28.6554225 23.9072994,28.8687288 C23.9047924,27.3487327 23.9023261,25.8286953 23.8996972,24.3086233 C23.7649729,24.5002695 23.8279581,26.6049274 23.8290286,27.0423443 C23.8301804,27.5148649 23.8286627,27.9522956 23.8213587,28.4100792 C23.8096099,29.1391131 23.8127267,29.0531407 23.3777653,29.594589 C23.4093392,28.7449412 23.4408317,27.8952934 23.4723652,27.0456835 C23.4517134,27.0525965 23.4309804,27.0596316 23.4104099,27.0665037 C23.4337719,27.3117011 23.3468826,27.836078 23.3456087,28.1468579 C23.3440097,28.518062 23.3115685,28.8743291 23.3066495,29.2403035 C23.2988441,29.8234444 23.3048472,29.7579284 22.9737276,30.1869902 C22.7729283,30.4469914 22.5725495,30.7464733 22.3450667,30.9864282 C22.2815122,30.7274591 22.6274433,27.9142197 22.712572,27.5986172 C22.8600616,27.0528776 23.6815812,24.8922107 23.5174615,24.4028212 C23.5004956,24.3519591 23.4677292,24.3158598 23.4244472,24.3304325 C23.3436017,24.3576767 23.3009837,24.9813868 23.2775404,25.0853112 C23.2173333,25.3526326 23.1748777,25.5699609 23.1054829,25.827747 C23.0368739,26.0825738 22.724929,27.0774899 22.6045429,27.2341631 C22.5777254,26.9532466 22.667894,26.2610864 22.678857,25.9255725 C22.6831662,25.7934667 22.6653059,24.5515074 22.5152687,24.6019621 C22.3917645,24.6435619 22.4889932,25.39161 22.5030728,25.5533749 C22.5311641,25.8733919 22.4938716,26.1953635 22.4744936,26.4965326 C22.4327836,27.1458035 22.3919677,27.7390346 22.3279527,28.3643062 C22.2639783,28.9885187 22.2168747,29.5837609 22.1294977,30.20629 C22.0621219,30.688073 21.9975648,31.6057101 21.5618318,31.8694194 C21.5244173,30.6844888 21.4869354,29.499572 21.4495615,28.3145448 C21.2791571,28.4276774 21.4261995,30.4286689 21.4403197,30.7942259 C21.4506727,31.0648203 21.5676995,31.8805169 21.4319858,32.0322882 C21.2776801,32.2047577 20.7879462,32.8068334 20.6030026,32.8868 C20.7193248,32.4579831 20.8540085,32.250731 20.9271027,31.7287457 C20.9855349,31.3119474 20.9747347,30.8827097 20.9250023,30.407933 C20.877411,29.9535162 20.7370628,29.3960546 20.6563801,28.9543084 C20.5675668,28.4683824 20.5157879,27.9288625 20.4254161,27.5193844 C20.1325239,26.1929763 20.5265475,23.4045265 21.860092,22.9555188 C22.6797268,22.6795867 22.8821521,23.6140106 23.6183537,23.3661904 C24.4371487,23.0905029 24.2412528,22.0867323 24.1247974,21.3155159 C24.0572182,20.8682675 23.9458153,20.500282 23.9140786,20.0718307 C23.8782227,19.5866775 23.8581942,19.3288085 23.8601589,18.88057 C23.8650102,17.7306259 24.4329223,15.6237771 25.7068551,15.1949188 C26.4546699,14.9430664 26.6843177,16.0758861 27.3417603,15.8545249 C27.3726837,15.8440672 27.4037156,15.8336232 27.4346393,15.8232878 C28.5861654,15.4355012 27.3295644,12.2164958 28.6544506,11.6438868 C29.0211264,11.5544264 29.0985327,12.095913 29.1620989,12.1299887 C29.3901493,12.2522071 29.6703978,12.0126596 29.8194451,11.8623275 C30.0301367,11.6498474 30.2451644,11.3745387 30.5300626,11.165686 C31.1997277,10.6746786 31.1819912,11.0435083 31.5341661,11.5413746 C31.8205268,11.9461922 32.2141432,12.0292014 32.8819255,11.8122409 C33.5700325,11.588665 34.579533,11.4210425 34.7956435,12.0655463 C34.8095198,12.1069829 34.8234774,12.1484741 34.8373536,12.1898293 C34.9724438,12.5930462 34.4224352,13.5240991 34.5833122,14.0040641 C34.7992886,14.6480776 36.2068349,14.1152273 36.6231232,15.3571449 C36.7856407,15.8417255 35.9262598,16.6605472 35.6140737,16.9761911 C35.2371373,17.3573509 34.2523571,17.9543594 34.4499052,18.5437234 C34.4568027,18.5644621 34.4638221,18.5851193 34.4706382,18.6057359 C34.6484821,19.1359659 35.7053154,19.1871933 36.169681,19.2925425 C36.79036,19.433408 37.4572474,19.4982726 37.8729127,20.0224043 C38.3711025,20.6504321 38.00242,21.3555633 37.6770866,21.8342899 C37.4581426,22.156317 36.6998271,23.0374071 36.1673381,23.1537848 C34.572721,23.5056501 32.9781006,23.8573395 31.3835248,24.2091634 C31.2698994,24.247395 31.1562468,24.2856672 31.0426348,24.3238577 C30.5224233,24.4990435 29.8342749,24.9365104 29.9909669,25.4040911 C30.0117406,25.4662664 30.0325957,25.5283741 30.0534643,25.5905494 C30.3776866,26.5579893 33.3346849,26.4296723 33.6759935,27.4478394 C33.6829316,27.4686324 33.6899104,27.4893305 33.6968485,27.5100692 C33.8352723,27.9230383 33.4902767,28.2716023 33.1468812,28.452192 C32.7686576,28.6511181 32.358496,28.9288281 31.9434537,29.0685807 C31.6438672,29.1694084 31.3443627,29.2703179 31.0448981,29.3710507 C30.684793,29.4923321 30.3220169,29.5118486 29.9997596,29.5524159 C29.6135024,29.6010237 29.3215963,29.6868712 28.9076141,29.7769153 C28.234249,29.9233357 27.3460881,30.2015374 26.6438587,30.4380012 C24.8406896,31.0450862 24.1002613,32.1933883 22.1739525,32.8419243 C22.0708833,32.8780098 21.967814,32.9140684 21.8647179,32.9500318 C21.4494587,33.0241043 21.0340378,33.0980957 20.6187408,33.1722224 C20.8508293,32.9279758 21.0829034,32.6838092 21.3150191,32.4396043 C21.40741,32.5479291 22.0092941,32.3690356 22.172636,32.3236333 C22.463875,32.242933 22.7408044,32.2360202 23.0405925,32.1351922 C22.9429843,31.9876581 22.3761317,32.1874666 22.198788,32.2189075 C21.9367379,32.2654506 21.5754277,32.3519094 21.3150156,32.4396043 L21.315049,32.4396232 Z M25.2113369,38.0415443 C25.4366285,37.9784314 26.5094248,37.9353368 26.8347816,37.9044346 C26.8742006,37.9007379 27.5559832,38.1017897 27.7027251,38.1388041 C28.0163614,38.2179855 28.3177356,38.2589123 28.6331118,38.337716 C29.8166229,38.6333487 31.1676846,38.8738305 32.4251004,39.4706943 C32.8779298,39.6856711 33.3308529,39.9006252 33.7837766,40.115638 C34.2329787,40.3288115 34.9169534,40.7939448 35.298704,41.0731214 C35.5913731,41.2870431 36.4379655,42.0979609 36.5441015,42.1512534 C36.3065735,41.4631031 33.7976191,39.9045545 33.3366452,39.6857928 C33.2381762,39.6390356 33.1398216,39.5922764 33.0412572,39.5455595 C32.150415,39.1227582 31.0942592,38.739765 30.2462955,38.5222343 C29.8052515,38.4089616 29.3674226,38.2835399 28.9132555,38.1574222 C28.5007114,38.0428601 27.8831326,37.9363025 27.5638859,37.8161694 C27.9066949,37.7202008 28.4242005,37.67652 28.8126418,37.5960139 C29.1443218,37.5270587 29.921013,37.9557015 30.3367032,38.1530525 C30.9711687,38.4480691 31.615712,38.5871788 32.2149875,39.0755723 C32.1043163,38.6055172 29.5414688,37.703598 29.2130062,37.5470912 C29.3460645,37.4677499 29.6281668,37.4478318 29.8048441,37.4145577 C30.0859641,37.3614799 30.1380167,37.3019011 30.4854541,37.4628708 C30.8878897,37.6493661 31.5186239,37.8458684 31.9885821,38.0304677 C32.485458,38.2256183 32.971328,38.4358374 33.5077826,38.6428866 C33.690153,38.7132324 34.919838,39.2606439 35.0112098,39.2111895 C34.9848677,39.1738001 34.9937674,39.166535 34.9367208,39.1394829 C34.9208031,39.1206186 34.9049147,39.1017825 34.8890167,39.082956 C33.3800142,38.4934867 31.8710804,37.9038919 30.3620719,37.3143594 C30.4634646,37.2951777 30.9953136,37.1879952 31.1031584,37.1996808 C31.4639519,37.3377311 34.2376419,38.2717125 35.073612,38.6241184 C33.89464,37.8593524 32.5492935,37.6141416 31.2843425,37.1519361 C31.4753715,37.0487504 32.3079823,36.8828769 32.5568757,36.8356244 C33.1418012,36.9929117 35.963955,38.1672925 35.92603,38.1227033 C35.6649187,37.9776021 33.53545,36.9820798 32.7431178,36.7987107 C32.9259775,36.7310612 33.7150678,36.4921366 33.7905333,36.5279525 C34.5800392,36.8988679 35.3695357,37.2697387 36.159089,37.6405455 C36.3742529,37.7708612 36.5893859,37.9010335 36.8045464,38.0311758 C36.8340664,38.0452206 36.8636621,38.0592064 36.8931721,38.0732227 C36.9193271,37.9324095 36.5257797,37.7584811 36.3899086,37.6879721 C36.1429973,37.5599636 35.9913951,37.463841 35.7231499,37.3364895 C35.4189449,37.1891953 35.1147483,37.041834 34.810563,36.8945397 C34.4987671,36.7641573 34.1869135,36.6337196 33.8751534,36.5031832 C33.8726384,36.4901816 33.8701913,36.4772266 33.8677028,36.4640806 C34.1879756,36.3575642 34.2176058,36.3166593 34.5165444,36.4481847 C35.1159326,36.711499 35.6803265,36.945022 36.2621052,37.1932746 C36.3507414,37.2353883 36.4393097,37.2774362 36.5278775,37.319484 C36.5836697,37.0195829 34.6994269,36.424678 34.3980229,36.3009529 C34.4735272,36.2727247 34.5441481,36.2180877 34.6246783,36.2162178 C35.2243225,36.2015597 39.3920939,37.9809186 40.1613628,38.2825217 C39.9061786,37.9664248 35.592937,36.4767592 34.9107401,36.1529221 C35.5308794,35.7831126 38.7800887,36.7200926 39.8638474,37.2344514 C40.3562099,37.468083 41.2122511,38.5166144 41.4905992,38.8888005 C41.6897856,39.1551255 41.8860965,39.515643 41.9931943,39.8144955 C42.0623014,40.0072007 42.1043793,40.1180883 42.1706151,40.3159693 C42.2214085,40.4676533 42.1814756,40.7235097 42.3599622,40.8133084 C42.556572,40.4005343 41.9900414,39.3332305 41.7716885,39.0094862 C41.570471,38.7109914 41.4151334,38.5077224 41.1698553,38.2173153 C41.0406965,38.064381 40.5128674,37.5461473 40.4505334,37.4480217 C40.7613249,37.5809268 41.0720304,37.7138059 41.3828679,37.8466999 C41.5896965,37.9448182 41.7963906,38.0429955 42.0031535,38.1411639 C42.3515652,38.3065092 42.8181529,38.5838614 43.1331139,38.793954 C43.2891112,38.8978134 43.436582,39.0106955 43.6215297,39.1354133 C43.6827322,39.176655 43.8067804,39.2640106 43.8709308,39.3165764 C43.9813006,39.4070355 44.0107756,39.5293154 44.0196813,39.5335731 C44.0877218,39.5658609 44.1181213,39.5550591 44.1506341,39.4868629 C44.2673131,39.2417951 42.6832509,38.2825892 42.3098569,38.1054664 C41.9160769,37.9184561 41.5222479,37.7315115 41.1285065,37.544595 C39.3706165,36.710246 37.6617758,36.3916632 36.0256297,35.7615037 C36.4040244,35.6380095 36.7823802,35.514516 37.1607828,35.3909766 C37.7455959,35.5289917 38.3304057,35.6668914 38.9151587,35.8048499 C38.2908894,35.5085405 37.8234201,35.4737022 37.2819892,35.3561335 C37.8130353,35.0394701 38.1555031,35.0448832 38.8574571,35.2256125 C39.4389513,35.3754136 40.0212787,35.4593731 40.6710546,35.767794 C40.6804795,35.7480464 40.6898957,35.7283663 40.6991688,35.7087174 C40.630315,35.675984 40.5614038,35.6432521 40.4924927,35.6105196 C40.1129272,35.4303634 39.6767267,35.3241849 39.328037,35.2363793 C39.0282109,35.1609805 38.4195691,35.0776822 38.212262,34.9997037 C38.4455229,34.8606472 38.7243024,34.7553137 39.0286887,34.8074193 C39.3291974,34.8588192 39.639328,34.8873211 39.9649863,34.9536242 C40.4659574,35.0559305 41.3683535,35.1699638 41.8939684,35.4051738 C41.9033848,35.3854935 41.9127705,35.3657084 41.9221596,35.346115 C41.01983,34.9177333 39.8137332,34.8891956 38.9680136,34.7055118 C39.1281406,34.6099807 39.4230607,34.5090598 39.6110694,34.4400384 C40.002739,34.2963603 39.9090283,34.38589 40.3602276,34.4741162 C40.7687001,34.5538201 41.6221144,34.7428001 42.0167426,34.9194137 C42.0260439,34.8997356 42.0355159,34.8799392 42.0449908,34.8603154 C42.0054052,34.8414781 41.9661782,34.8228738 41.9267769,34.8041578 C41.4336774,34.5701546 40.4471865,34.4106159 39.9559484,34.3039636 C40.1910248,34.1638659 40.2650458,34.1305995 40.5803709,34.1938521 C40.8092977,34.2399229 41.0762952,34.2937391 41.3295022,34.3666356 C41.5648941,34.4343368 41.8530629,34.4885284 42.084674,34.5562438 C42.2460115,34.6035027 42.732246,34.844848 42.8328904,34.726427 C42.7837047,34.7031145 42.7343363,34.6797579 42.6852075,34.6564059 C42.3675518,34.5056006 41.9293013,34.4248369 41.5869802,34.330377 C41.3243037,34.2580015 40.6547336,34.1597661 40.493577,34.0876638 C40.7126326,33.8301984 42.2165395,34.1589558 42.6453759,34.2666159 C43.3074738,34.4325924 44.2105532,34.5063136 44.9123157,34.7704835 C44.9217312,34.7507457 44.931089,34.731009 44.9405054,34.7113287 C44.5046476,34.5044338 43.3474695,34.2897971 42.8962021,34.2113951 C42.2647581,34.1017539 41.5216732,34.0202811 40.9131898,33.886046 C40.9944531,33.8427246 41.089884,33.8244689 41.1712127,33.7810408 C42.4871034,32.9292959 44.9040395,33.8598406 45.914337,34.3393552 C46.1013838,34.4281504 46.2885074,34.5169821 46.4755532,34.6057198 C45.929801,34.2000935 44.8465966,33.7888668 44.3956447,33.6587756 C43.9699242,33.5356998 43.6294693,33.3899516 43.2298213,33.350074 C42.9384932,33.3209256 42.3289045,33.342273 42.1332688,33.3062812 C42.887872,32.856299 42.9012463,32.8986113 43.8685426,33.1416209 C44.3720218,33.2681558 45.410691,33.4599024 45.8727406,33.6666594 C45.5605005,33.3669641 44.6558643,33.2407029 44.4530973,33.1964482 C44.1323487,33.1264657 43.3648624,32.9769829 43.1057811,32.8611059 C43.6319235,32.5473944 44.1642615,32.6047543 44.8038275,32.5911897 C45.0680301,32.585496 45.4599407,32.5681354 45.7155406,32.5990486 C45.8508699,32.6152633 46.6661093,32.8371791 46.6906693,32.7854905 C45.7750583,32.3699603 44.6773862,32.3803492 44.5749812,32.361549 C44.7142442,32.278533 45.3888377,32.1734869 45.4052183,32.1390236 C45.4283065,32.0905942 45.4298611,32.0418737 45.3884867,32.0221774 C45.2484703,31.9557272 44.3555895,32.2372663 44.1487579,32.2680411 C44.4634408,31.6073702 45.3961217,31.0177334 45.7372043,30.3017124 C45.7643797,30.2444857 45.7409058,30.1583226 45.7048993,30.1412804 C45.563857,30.0742926 45.5304166,30.3170661 45.4244412,30.4592478 C45.3212284,30.597808 45.2614063,30.6704066 45.1552875,30.8090695 C45.0071624,31.0026624 44.7352936,31.2931642 44.5748643,31.4593522 C44.2978191,31.7459482 43.6712837,32.5024457 43.3667057,32.5500855 C43.7436264,31.8825322 44.1205688,31.2150335 44.4974419,30.5474343 C44.3136521,30.5828258 43.433866,32.2483424 43.2767615,32.5805707 C43.0134718,32.6967459 42.7503573,32.8130319 42.4871071,32.9293024 C42.9489661,32.2178409 43.4107892,31.5064165 43.8726482,30.794955 C43.8474061,30.7820205 43.8222518,30.7691707 43.7970956,30.7562058 C43.3139933,31.507515 42.830901,32.2588147 42.3478935,33.0100237 C41.9897248,33.178294 41.6315844,33.3464765 41.2733495,33.5147356 C41.4462203,33.2179753 41.7882725,32.874304 41.9922327,32.630695 C42.2657471,32.304195 42.3978239,31.9968326 42.6671396,31.622849 C42.8206049,31.4096611 43.8906747,29.4355576 43.8905456,29.3888725 C43.6080263,29.3369274 43.3121281,30.1636819 43.1190602,30.4709589 C42.866912,30.8720905 42.6370637,31.3093162 42.3980173,31.7648648 C42.1706123,32.1983117 41.8660424,32.4814373 41.5912375,32.8165892 C41.3917938,33.0594811 40.856271,33.5542602 40.7471592,33.7651374 C40.5859493,33.8360789 40.4247215,33.9070974 40.2636166,33.9780664 C40.3878646,33.6865555 40.5121512,33.3951212 40.6364086,33.1036006 C40.6950814,32.9741573 40.7538117,32.8447129 40.8126295,32.7152949 C40.9797348,32.395712 41.1469983,32.0762578 41.3140593,31.7568575 C41.1757799,31.6898567 40.8667128,32.4153295 40.7873321,32.5585888 C40.7706138,32.5870204 40.7541652,32.6155238 40.7374205,32.6440998 C40.5350878,33.1064968 40.3326183,33.5688383 40.1302018,34.0313845 C39.8427337,34.1463009 39.5552656,34.2612758 39.2678081,34.3762388 C39.5088293,33.9223719 39.7496888,33.4685549 39.9906991,33.0146775 C39.8430831,32.987504 39.6235383,33.4933772 39.5479203,33.6374022 C39.4048344,33.9098152 39.2570122,34.1748624 39.1432622,34.4352734 C38.9793576,34.5039334 38.8154355,34.5727088 38.6515501,34.641349 C38.643329,34.6325981 38.6351824,34.6237115 38.627047,34.6149301 C38.9300852,34.0700782 39.2331984,33.5252459 39.5362548,32.9802965 C39.3504953,32.9462132 39.0943077,33.5259056 38.9940817,33.7385637 C38.8475795,34.049101 38.6789837,34.3239361 38.521967,34.6937794 C38.209121,34.8050701 37.8961212,34.9163253 37.5833702,35.0276325 C37.7816306,34.6113546 38.2276489,33.8303673 38.4748102,33.4518747 C38.632244,33.2108759 38.7556564,32.9369675 38.9192775,32.6952379 C39.0537708,32.4964488 39.2943838,32.1955526 39.4005484,31.9727848 C39.2367093,31.8951293 38.3078766,33.502447 38.1890577,33.7550568 C38.0199534,34.1149442 37.8074172,34.3973977 37.6509654,34.7332391 C37.4629971,35.1370844 37.2494348,35.2134108 36.9173584,35.2540618 C37.309578,34.6184987 37.7016825,33.9830546 38.0938756,33.3475762 C37.8109537,33.5023399 37.5909964,34.0146678 37.4284225,34.2434917 C37.2415781,34.5064994 36.9410114,35.0076116 36.802316,35.3197993 C36.5035742,35.4246973 36.2049588,35.5296405 35.9063124,35.6344988 C35.8964007,35.6203393 35.886545,35.6060828 35.8767865,35.5919013 C36.4859231,34.6854812 37.0952138,33.7789798 37.7044925,32.8724716 C37.5443833,32.9033168 35.947147,35.2694625 35.7687336,35.6620482 C35.6226936,35.7107849 35.4765969,35.75958 35.3305005,35.8084335 C35.5337061,35.4816069 35.7369022,35.1548094 35.9401755,34.8279906 C35.9542555,34.7983895 35.9683648,34.7688167 35.982417,34.7392639 C35.8358984,34.7252331 35.3502272,35.610488 35.2436672,35.8449013 C34.9007569,35.9452277 34.5580018,36.0455896 34.2152062,36.145972 C34.6714964,35.6261836 35.1279677,35.106383 35.5843815,34.586642 C35.4166345,34.5557741 35.0961184,35.037281 34.9807678,35.1716143 C34.804551,35.376916 34.6044327,35.5926498 34.4011164,35.8240044 C34.1683388,36.0889299 34.0704647,36.2512227 33.7630925,36.3118027 C33.5351542,36.3567831 33.2642826,36.494484 33.0292887,36.52933 C33.2040607,36.3101722 33.6339021,35.9238149 33.8468499,35.7159419 C34.127129,35.4422663 34.3895754,35.1957962 34.6662732,34.9078433 C34.9316578,34.6316054 35.2043287,34.31029 35.4573531,34.0197948 C35.8956664,33.5166711 35.79054,33.5680639 36.3209693,33.267177 C36.8649939,32.9586492 38.8961827,32.1714417 39.1532716,31.6317028 C38.6800955,31.9987549 36.6238268,33.0483659 36.2157359,33.1089711 C36.4054546,32.7834112 36.8799276,32.2556596 37.1532567,31.8714335 C37.3047271,31.6588872 37.6391372,31.0646942 37.7906197,30.4107771 C37.4262012,31.1759522 37.1444518,31.5657767 36.7382718,32.1565144 C36.5679312,32.4043827 36.3506458,32.6445652 36.1588227,32.878727 C36.0512325,33.0100766 35.9661187,33.1119283 35.8666142,33.2331689 C35.8264775,33.2821835 35.7597008,33.3865633 35.7145545,33.4278711 C35.6709019,33.4678076 35.5522526,33.5135986 35.5359292,33.5480002 C35.0448365,34.5788922 32.1666211,37.080347 31.3309233,36.9127193 C31.9107112,36.1988953 32.490389,35.4852046 33.0700031,34.7713853 C33.0459232,34.7585347 33.0218995,34.7455873 32.9978283,34.7326884 C32.4012764,35.4633845 31.8048117,36.1941264 31.2082699,36.9248898 C31.2191523,36.9397413 31.230028,36.9547751 31.240894,36.9697806 C31.079619,36.9956295 30.9182673,37.0214993 30.7569625,37.0472038 C31.2142654,36.4661274 31.6712677,35.8849525 32.1283982,35.3037624 C31.9837665,35.2772049 31.6458632,35.7586333 31.5303638,35.9043179 C31.3263225,36.1611784 31.1596994,36.3682304 30.9808807,36.6420839 C30.7704463,36.9644379 30.6707785,37.0886959 30.3474655,37.1430176 C30.0835868,37.1873323 29.8254012,37.2366365 29.5565974,37.2735862 C30.610672,36.1784511 31.6648047,35.0833144 32.7188443,33.98804 C32.4888031,34.0323114 31.0720927,35.5900287 30.7690074,35.9054237 C30.4415955,36.2461267 30.1366389,36.5597337 29.8133816,36.8839619 C29.2985007,37.4002237 29.3604642,37.3405454 28.6714576,37.4278811 C29.2843849,36.8386287 29.8972537,36.2493197 30.5101256,35.6600666 C30.4904678,35.6506934 30.4706667,35.6413517 30.4510957,35.6320056 C30.2975725,35.8246144 29.8708068,36.1414612 29.6540046,36.3641327 C29.3949943,36.6300438 29.1241742,36.8637853 28.8664085,37.1236282 C28.4557101,37.5376826 28.5055396,37.4947245 27.9693007,37.5733507 C27.6442457,37.620893 27.2920677,37.6971275 26.9617436,37.7117137 C27.0959214,37.4812783 29.2990037,35.6979072 29.5794761,35.5300171 C30.0646738,35.2398997 32.1565509,34.2563215 32.3784516,33.790277 C32.4015791,33.7419044 32.4030857,33.6931753 32.3618281,33.6735918 C32.2847473,33.6370296 31.820825,34.0560841 31.7317694,34.1145561 C31.5027629,34.2650276 31.3212541,34.3918683 31.0922623,34.5290985 C30.8658916,34.6647457 29.9503705,35.1637333 29.7549376,35.1928074 C29.9307877,34.972104 30.4764643,34.536842 30.717418,34.303109 C30.8122862,34.2110735 31.662176,33.3052759 31.5191995,33.2373454 C31.4014604,33.1814766 30.951763,33.7871181 30.8495196,33.9132625 C30.6474243,34.1629773 30.3969381,34.3686788 30.1737891,34.5718606 C29.692764,35.0099327 29.2513105,35.4083144 28.7709119,35.8136286 C28.2912781,36.2182091 27.8439046,36.6136697 27.3486058,37.0007825 C26.9654651,37.300545 26.2815823,37.9157927 25.7849544,37.8028037 C26.5811626,36.9244457 27.3773127,36.0460508 28.1736172,35.1676515 C27.9724501,35.1306594 26.688218,36.6721965 26.444438,36.9449649 C26.2639146,37.146806 25.7814663,37.8148627 25.5784128,37.8297631 C25.3476072,37.8466376 24.5770851,37.9395369 24.3884984,37.8685874 C24.7700548,37.6409265 25.0109076,37.585401 25.4260886,37.2606917 C25.7576536,37.0014625 26.0480582,36.6851923 26.3420913,36.3091195 C26.6235214,35.9491797 26.9098088,35.4506813 27.1586332,35.0768688 C27.4322988,34.6656279 27.7698342,34.2415612 27.9892735,33.8842297 C28.699985,32.7266316 30.9204419,30.9945005 32.1916204,31.5978692 C32.9728949,31.9687464 32.4694021,32.7815312 33.1711316,33.1146729 C33.9516321,33.4851427 34.507994,32.6270098 34.9599549,31.9913464 C35.2220273,31.6226784 35.397515,31.2805848 35.6723128,30.9503366 C35.983536,30.5764389 36.1482596,30.3770306 36.4610455,30.0559596 C37.2633535,29.232129 39.1354154,28.1110937 40.3497159,28.687547 C41.0626003,29.0258553 40.4408724,30.0002644 41.0675675,30.2977284 C41.0970765,30.3116871 41.126654,30.3257308 41.1560781,30.3397775 C42.253796,30.8607445 43.5859818,27.6722774 44.9367928,28.1807201 C45.2627018,28.3710822 44.942235,28.814366 44.9642897,28.8830348 C45.0434355,29.1293684 45.411433,29.1517293 45.6230781,29.1471265 C45.922238,29.1406398 46.2681615,29.0919701 46.6181815,29.1396409 C47.4409805,29.2516282 47.1720114,29.5046213 47.0794978,30.1073975 C47.0042785,30.5975218 47.2297594,30.9306626 47.8608352,31.2384748 C48.5111269,31.5556471 49.3537411,32.1363275 49.0614881,32.7500677 C49.0426855,32.789514 49.0239036,32.829056 49.0051576,32.8684437 C48.8222353,33.2523352 47.7798285,33.5400105 47.5621421,33.997023 C47.2701331,34.6103174 48.6527861,35.2047807 48.0895304,36.3873197 C47.8698177,36.8487919 46.6828295,36.8408268 46.238997,36.8510193 C45.7030758,36.8633607 44.5799672,36.6087269 44.3126647,37.1699083 C44.3032201,37.1896179 44.2939197,37.2093536 44.2845014,37.2289188 C44.0441028,37.733875 44.7687395,38.504863 45.0295945,38.9032204 C45.3782202,39.4357104 45.8128801,39.945629 45.7477922,40.6114031 C45.6698952,41.4092403 44.9148619,41.6603608 44.3482853,41.7787324 C43.9670913,41.858288 42.8095481,41.9653209 42.3456649,41.6791381 C40.9541672,40.8245348 39.5627892,39.9698025 38.17135,39.115198 C38.0630568,39.0637686 37.9547158,39.0123497 37.8464609,38.9609001 C37.3505577,38.7255489 36.5516552,38.5622082 36.3395611,39.007405 C36.3113139,39.0665608 36.2831722,39.1257245 36.2549932,39.1849463 C35.816179,40.106088 38.032402,42.0678881 37.5706405,43.0373891 C37.5611874,43.057166 37.5518294,43.0769028 37.542414,43.0966406 C37.3551152,43.4898629 36.8648132,43.5009448 36.4923471,43.3923077 C36.0820902,43.2726669 35.594131,43.1875126 35.1984942,42.9997296 C34.9129489,42.8641487 34.6274058,42.7286835 34.3420141,42.5931191 C33.998727,42.4302116 33.7242104,42.1922451 33.4642175,41.9975681 C33.1526016,41.7642168 32.8829872,41.6231954 32.5226435,41.4003914 C31.9365529,41.0379588 31.1044084,40.6211119 30.4350052,40.3034002 C28.7161973,39.4875141 27.3859,39.7991887 25.5497185,38.92758 C25.4505095,38.8819399 25.3513193,38.8362803 25.2521759,38.7905336 C24.9020084,38.5553537 24.5517808,38.320003 24.2015485,38.0848357 C24.5381669,38.0703616 24.8747194,38.0559351 25.2113284,38.0415099 C25.2025401,38.1836124 25.7597692,38.473031 25.9088066,38.5538381 C26.1743656,38.6980988 26.3783739,38.8854974 26.6640645,39.0212182 C26.6963368,38.8472867 26.1497786,38.597248 26.0003675,38.4966714 C25.7795328,38.3481164 25.4595687,38.1593226 25.211326,38.0415075 L25.2113369,38.0415443 Z" id="Shape-Copy" transform="translate(27.042716, 28.434223) rotate(-57.000000) translate(-27.042716, -28.434223) "></path>
        </g>
        <text id="Mains" font-family="PlayfairDisplay-SemiBold, Playfair Display" font-size="14" font-weight="500" letter-spacing="1.4" fill="#000000">
            <tspan x="283" y="318">Mains</tspan>
        </text>
    </g>
</svg>