<?xml version="1.0" encoding="UTF-8"?>
<svg width="30px" height="20px" viewBox="0 0 30 20" version="1.1" xmlns="http://www.w3.org/2000/svg" xmlns:xlink="http://www.w3.org/1999/xlink">
    <!-- Generator: Sketch 51.1 (57501) - http://www.bohemiancoding.com/sketch -->
    <title>Shape</title>
    <desc>Created with Sketch.</desc>
    <defs></defs>
    <g id="Twin-Oaks-Website" stroke="none" stroke-width="1" fill="none" fill-rule="evenodd">
        <g id="Desktop-HD-Copy-11" transform="translate(-136.000000, -2650.000000)" fill="#000000" fill-rule="nonzero">
            <path d="M137.363526,2650 C136.625634,2650 136,2650.61197 136,2651.33323 L136,2668.66677 C136,2669.38803 136.625878,2670 137.363526,2670 L164.636474,2670 C165.374366,2670 166,2669.38803 166,2668.66677 L166,2651.33323 C166,2650.61173 165.374122,2650 164.636474,2650 L137.363526,2650 Z M139.611474,2652.00014 L162.388648,2652.00014 L151.000365,2662.30205 L139.611474,2652.00014 Z M138.045289,2653.30224 L145.087553,2659.6666 L138.045289,2666.5524 L138.045289,2653.30224 Z M163.95459,2653.30224 L163.95459,2666.5524 L156.912325,2659.6666 L163.95459,2653.30224 Z M146.589392,2661.0315 L150.307401,2664.396 C150.496218,2664.56574 150.743293,2664.65991 150.999878,2664.65991 C151.256463,2664.65991 151.503539,2664.56574 151.692355,2664.396 L155.410365,2661.0315 L162.537249,2668.00004 L139.461777,2668.00004 L146.588661,2661.0315 L146.589392,2661.0315 Z" id="Shape"></path>
        </g>
    </g>
</svg>