<?xml version="1.0" encoding="UTF-8"?>
<svg width="15px" height="19px" viewBox="0 0 15 19" version="1.1" xmlns="http://www.w3.org/2000/svg" xmlns:xlink="http://www.w3.org/1999/xlink">
    <!-- Generator: Sketch 51.1 (57501) - http://www.bohemiancoding.com/sketch -->
    <title>noun-phone-2717579</title>
    <desc>Created with Sketch.</desc>
    <defs></defs>
    <g id="Twin-Oaks-Website" stroke="none" stroke-width="1" fill="none" fill-rule="evenodd">
        <g id="Desktop-HD-Copy-11" transform="translate(-138.000000, -23.000000)" fill="#000000" fill-rule="nonzero">
            <g id="Group-9" transform="translate(0.000000, -1.000000)">
                <g id="Group-10">
                    <g id="noun-phone-2717579" transform="translate(138.000000, 24.000000)">
                        <path d="M8.7764856,13.6644325 C9.50846933,13.1155022 10.3547711,12.5436163 11.109579,12.9324488 C12.1160772,13.4585549 13.1224768,13.9846282 14.128975,14.4878773 C14.9524197,14.9224895 15.2497912,15.402783 14.7694977,16.2492162 C14.0146897,17.6217226 12.0246162,18.7425388 10.5150003,18.3079266 C3.97315644,16.4551266 -0.464591373,10.2560728 0.0388547453,3.3483848 C0.153284468,1.79295633 1.89165469,0.283307624 3.42439032,0.0314860434 C4.38510869,-0.128611793 4.75108414,0.328847659 4.8654022,1.24376328 C5.00266598,2.36457949 5.13992976,3.50835127 5.27719026,4.62929885 C5.39161998,5.47560064 4.56803073,6.07031073 3.8132228,6.57355981 C1.98324707,7.85447386 6.94693679,14.9456093 8.77674832,13.6644982 L8.7764856,13.6644325 Z" id="Shape"></path>
                    </g>
                </g>
            </g>
        </g>
    </g>
</svg>