<?xml version="1.0" encoding="UTF-8"?>
<svg width="282px" height="253px" viewBox="0 0 282 253" version="1.1" xmlns="http://www.w3.org/2000/svg" xmlns:xlink="http://www.w3.org/1999/xlink">
    <!-- Generator: Sketch 51.1 (57501) - http://www.bohemiancoding.com/sketch -->
    <title>Artboard 13</title>
    <desc>Created with Sketch.</desc>
    <defs></defs>
    <g id="Artboard-13" stroke="none" stroke-width="1" fill="none" fill-rule="evenodd">
        <g id="Group-3" transform="translate(49.000000, -19.000000)" fill="#000000">
            <path d="M47.1299092,123.773558 C47.7161622,122.87819 50.863761,119.884903 51.8678956,118.857423 C53.4988605,117.188417 54.9023138,115.479472 56.5081675,113.842148 C57.6388725,112.688802 64.7747996,104.053591 64.7747996,102.906582 C64.7747996,102.772637 64.7747996,102.639258 64.7747996,102.505183 C64.4385298,102.629479 62.6465533,105.199594 62.2672848,105.690781 C61.4885745,106.701232 60.3431762,107.719468 59.6777674,108.658294 C59.193989,109.340578 57.7145298,110.840787 57.0337867,111.570613 C56.1143653,112.556206 55.2895571,113.482122 54.3511842,114.443159 C48.8997464,120.027634 42.470688,125.166722 36.3177448,129.963538 C34.3449894,131.500463 31.9657391,133.245395 29.8513811,134.581887 C27.5544679,136.032334 25.2704179,137.308543 22.8639737,138.667201 C21.8787852,139.223319 16.022712,142.100777 16.022712,142.901451 C16.022712,143.943368 17.3606518,145.04183 18.3751137,145.04183 C19.0067826,145.04183 21.237811,143.180118 21.7416751,142.735007 C22.7981958,141.802609 23.9708301,141.348453 25.1740091,140.630052 C27.6503804,139.150275 29.655175,137.877058 32.0204075,136.267032 C36.4515237,133.250937 40.1592067,129.471015 45.038515,126.98365 C51.9195856,123.476576 59.2589813,122.036694 66.7633102,120.858963 C68.5618736,120.576776 70.1468678,120.83858 71.9651468,120.829758 C73.1164091,120.823413 75.9990703,121.116162 76.9306016,121.36571 C77.7145801,121.575928 80.8592026,122.391982 81.3742896,122.435702 C81.2546936,120.965529 75.2281772,120.35617 73.4120996,120.15099 C63.5100459,119.032152 56.3006629,121.586964 47.1298445,123.77353 L47.1299092,123.773558 Z M67.2855518,101.859111 C67.6561927,101.21303 69.9817836,98.7291045 70.6482499,97.9347334 C70.7290992,97.8385993 72.7045727,96.7858586 73.1161286,96.5448682 C73.9959116,96.0299504 74.7647263,95.4542325 75.6476107,94.9345779 C78.9606045,92.9842561 82.5313576,90.5345339 86.6670747,89.1133292 C88.1565233,88.601584 89.6461338,88.0895783 91.1358738,87.5777062 C92.6132147,87.0698732 95.1687721,86.6201457 96.637739,86.4141828 C97.7636851,86.2560305 101.43907,86.2407759 101.794501,86.1275188 C99.7600949,85.0714769 90.7073757,87.0610454 89.1913159,87.5821825 C88.8674096,87.6934404 88.5437569,87.8044388 88.2197232,87.9160014 C85.2898181,88.9230195 82.0737835,90.3891481 79.6876377,91.7733614 C78.4462686,92.4930201 77.1856911,93.1775662 75.8867508,93.8968286 C74.7068486,94.5501666 73.08197,95.6777031 72.1003458,96.1108259 C72.6644638,95.1278847 73.7364473,93.8769696 74.4371542,92.8281847 C75.0350056,91.9321639 77.7201915,91.1923394 79.0874942,90.7225785 C81.1608995,89.9913157 82.917485,88.8787711 85.3326809,88.6708642 C84.059359,87.8348621 76.3151626,91.4557168 75.2335361,91.8255976 C75.3608219,91.3471866 75.9536597,90.6742501 76.2796476,90.2049197 C76.7980518,89.4578371 76.7856883,89.2049853 77.9198282,88.8031987 C79.2335956,88.337913 81.0840325,87.3881758 82.5459527,86.7684292 C84.0915589,86.1131351 85.6451614,85.5169919 87.3059424,84.8011075 C87.8704424,84.5576432 91.8359171,83.0842476 91.9342791,82.7672984 C91.7934406,82.739788 91.7976892,82.7032814 91.6101171,82.7678199 C91.533134,82.7597797 91.4562784,82.7517396 91.3794222,82.7437429 C86.6924135,84.741223 82.0052862,86.7382615 77.3181265,88.735609 C77.5050187,88.4660686 78.4710506,87.0370958 78.7397199,86.8242656 C79.8540654,86.3400316 88.1435965,82.3242974 90.7964368,81.2772124 C86.4719595,82.1375521 82.9037963,84.5636841 79.0443563,86.3116075 C79.2504515,85.6494461 80.7669602,83.4168074 81.2253717,82.7547708 C82.8870915,81.8165935 91.809485,78.2465013 91.6268435,78.2281656 C90.7219525,78.4745851 83.7512855,80.9166153 81.565004,82.2558009 C81.830069,81.6935991 83.0893299,79.3895475 83.3375282,79.3042388 C85.9258909,78.4030463 88.5141349,77.5017721 91.1023682,76.6002242 C91.8714343,76.4219071 92.6401184,76.2433284 93.4087992,76.0646195 C93.5059628,76.0313289 93.6031687,75.9977341 93.7002477,75.9644001 C93.4525587,75.5821237 92.1862058,76.0565793 91.7262188,76.1963044 C90.8905784,76.4505041 90.33933,76.5662383 89.4570067,76.8693734 C88.4501516,77.2065382 87.4431691,77.5435297 86.4363582,77.8806503 C85.4492154,78.2736179 84.4618222,78.6665866 83.4744247,79.0591204 C83.4404365,79.0347827 83.4067033,79.0104014 83.3724603,78.9856725 C83.8627814,78.028547 83.8405191,77.8685236 84.8011543,77.5067675 C86.7264068,76.7805031 88.5078553,76.0634518 90.3605907,75.3416615 C90.6522086,75.2415725 90.9435297,75.141483 91.2348497,75.0413943 C90.7075244,74.227035 85.1624091,77.0461269 84.2132017,77.4313187 C84.3220065,77.1985014 84.3622826,76.9157496 84.5398274,76.7324342 C85.8602639,75.3657396 99.1349653,70.1970561 101.526733,69.1812996 C100.2628,69.0209307 87.2909435,75.1798222 85.0471231,75.9508461 C85.6403008,73.7210742 95.0087876,68.6552072 98.5731739,67.4301087 C100.192409,66.8734264 104.4066,67.3841278 105.84493,67.6221163 C106.874176,67.7923937 108.102078,68.1858834 108.99448,68.6357401 C109.570026,68.9257069 109.906424,69.0874225 110.486767,69.3956863 C110.931671,69.6319367 111.398838,70.3096564 111.996945,70.1196038 C111.541377,68.732399 107.939227,67.5349309 106.741703,67.275086 C105.637814,67.0352723 104.844788,66.9126708 103.659145,66.7894169 C103.034783,66.7244873 100.715729,66.7048867 100.361442,66.6175753 C101.351814,66.2326473 102.341935,65.8478507 103.332387,65.4627947 C104.012532,65.2288912 104.692502,64.9954226 105.372609,64.7617808 C106.518476,64.3679003 108.1748,63.9691527 109.342681,63.7526333 C109.920691,63.6449386 110.499123,63.5769666 111.187851,63.4529312 C111.415699,63.4118178 111.885713,63.3371529 112.144871,63.3155531 C112.590795,63.278438 112.923582,63.4943923 112.952939,63.4843965 C113.176708,63.4074719 113.221742,63.315032 113.146544,63.0857792 C112.875956,62.2622941 107.214421,63.5755327 105.986563,63.9978362 C104.691194,64.4426955 103.395858,64.8878153 102.100781,65.3328049 C96.3191429,67.3198532 91.7714058,70.3851051 86.7090351,72.5715493 C87.2934611,71.4461432 87.8778007,70.3208255 88.4621458,69.1952981 C90.0816396,68.2130082 91.7008743,67.2304601 93.3201091,66.2481736 C91.2668835,66.9537952 90.1367396,67.9127421 88.6596145,68.8456626 C89.1676095,66.9362731 89.9517563,66.1874595 91.9284614,65.0430997 C93.5661384,64.0953175 95.0622992,62.9941231 97.1994266,62.2596822 C97.1776742,62.1932749 97.1560492,62.127042 97.1341695,62.0611993 C96.9075957,62.1389063 96.6808957,62.2167442 96.4541947,62.2945807 C95.2058113,62.7236201 93.990816,63.4488424 93.0131953,64.0218282 C92.172796,64.5147542 90.6187294,65.6759649 89.981367,65.9572916 C90.2045836,65.118682 90.6039023,64.2565154 91.4038561,63.6998341 C92.1935281,63.1501482 92.9550306,62.5263647 93.8338791,61.9550789 C95.1865166,61.0769644 97.4700163,59.333514 99.1676817,58.706548 C99.1460567,58.6403145 99.1241344,58.5739077 99.1026369,58.5079348 C96.1346711,59.5276432 93.352444,62.1429932 91.0450741,63.6001296 C91.1981477,63.0242803 91.643478,62.136392 91.9171673,61.5595867 C92.4875733,60.3582109 92.471216,60.7726084 93.6809398,59.9727211 C94.7757424,59.2481942 97.1120004,57.7861445 98.3866388,57.3154673 C98.364759,57.2494946 98.3430065,57.1828701 98.3216366,57.1166367 C98.1913346,57.1612704 98.0623492,57.2056433 97.9327271,57.2501468 C96.3110212,57.8076118 93.738759,59.6332492 92.398607,60.479724 C92.6236505,59.634682 92.7181374,59.3935646 93.5670381,58.8382267 C94.1836673,58.4353937 94.9030247,57.9657619 95.6328356,57.5707058 C96.3111539,57.2032921 97.0790761,56.6874625 97.7488985,56.328486 C98.2156829,56.0786323 99.8378971,55.5533281 99.8069694,55.0570131 C99.6452704,55.1126857 99.4830631,55.1686628 99.3214062,55.2241179 C98.2765691,55.5831 97.1123012,56.371381 96.1345511,56.9148928 C95.3845186,57.3321979 93.6605107,58.5944633 93.1400281,58.786728 C93.0733264,57.7071312 97.1810414,55.1208489 98.3826556,54.4154072 C100.237344,53.3256845 102.43459,51.4879209 104.592587,50.5360576 C104.570835,50.4696938 104.548955,50.4034604 104.52733,50.337227 C103.093758,50.8298494 100.016553,52.9080791 98.8280718,53.730732 C97.165208,54.8819911 95.3119115,56.3462586 93.6472673,57.3898663 C93.7361887,57.1095044 93.9116524,56.8553478 94.000489,56.5745952 C95.1131727,51.6888722 102.590642,48.4582574 105.913467,47.3162488 C106.528694,47.1048581 107.144174,46.8933801 107.759274,46.6818591 C105.645046,46.9613092 102.30652,48.4225741 101.006177,49.125543 C99.7780161,49.7885732 98.6927746,50.2098766 97.7046109,51.0064632 C96.9841053,51.586962 95.6558097,52.9911602 95.136212,53.3431911 C95.8580351,50.6299701 95.9803494,50.6976386 98.6911127,49.10681 C100.102174,48.2788916 102.862257,46.4114058 104.354598,45.8602439 C102.997709,45.8644596 100.682526,47.5847427 100.12885,47.9336055 C99.2530606,48.485508 97.1966138,49.8474658 96.3599482,50.1566436 C96.8633126,48.2649495 98.1888026,47.2136476 99.6016551,45.7607281 C100.185103,45.1603239 101.031158,44.249181 101.674931,43.752165 C102.015449,43.4886651 104.337343,42.1872889 104.28016,42.013713 C101.31023,43.0925271 98.8573084,45.5564641 98.5854126,45.740825 C98.7186886,45.2401629 100.011301,43.4987999 99.9731863,43.3830569 C99.9197825,43.2202551 99.8171807,43.1046501 99.6809738,43.1512828 C99.2204776,43.3095654 97.8199508,45.9424275 97.4205134,46.4730349 C96.6913403,44.2527344 97.5106244,40.8221939 96.7204432,38.4157994 C96.6570978,38.2236616 96.4165039,38.0775042 96.2981835,38.118314 C95.8342027,38.2776397 96.2875197,38.9108118 96.3581726,39.4736716 C96.4271685,40.0220538 96.4503654,40.3221466 96.513031,40.8772251 C96.6005929,41.6521224 96.6201361,42.925164 96.6202636,43.6643295 C96.6196263,44.9398868 96.8541872,48.0739884 96.2710357,48.8606985 C95.6672362,46.4862065 95.063605,44.1117918 94.4595983,41.7372998 C94.1221814,42.2273149 95.7653371,48.0168289 96.1345806,49.1308097 C95.7938076,49.9835005 95.4536713,50.8360566 95.113195,51.6888788 C94.6053274,49.024505 94.0974598,46.3602967 93.5895921,43.6959229 C93.5044943,43.7222598 93.4197792,43.7485967 93.334809,43.7746729 C93.881551,46.5779935 94.4282951,49.38127 94.9750327,52.1841491 C94.5337394,53.3676639 94.0923188,54.5509138 93.6508518,55.7345501 C93.3944112,54.6671657 93.4173533,53.1157228 93.3467851,52.101578 C93.2525531,50.7420146 92.8810206,49.7409067 92.6739056,48.2813749 C92.5557114,47.4495013 90.669629,40.5266718 90.5676626,40.419495 C89.8173743,40.9279374 90.9506239,43.4887872 91.1844192,44.6252763 C91.4893771,46.1091378 91.9232364,47.6265135 92.3762565,49.206513 C92.8073963,50.7097589 92.7371249,52.0385127 92.8472893,53.4208604 C92.9264816,54.4233151 92.7963072,56.7526579 93.0094977,57.480619 C92.8004284,58.0022727 92.5914865,58.5241439 92.382714,59.0456276 C92.0280483,58.0984106 91.6736363,57.1512841 91.3189707,56.204024 C91.1693805,55.7756358 91.0199177,55.3471174 90.8707095,54.9184654 C90.551561,53.8113619 90.2330493,52.7042032 89.9141987,51.5976186 C89.4564207,51.7507724 90.3393904,54.1077567 90.4723685,54.6139791 C90.496585,54.7165889 90.5215664,54.8187642 90.5460378,54.921765 C91.0967725,56.4359173 91.6470777,57.9502463 92.1979484,59.4649285 C91.7999052,60.3684678 91.4019894,61.2721419 91.0040715,62.1757651 C90.5591675,60.5952468 90.1140077,59.0152032 89.6690561,57.4346849 C89.2769611,57.7002712 89.8835642,59.3527621 90.0266958,59.8523833 C90.2972837,60.7975139 90.5411483,61.7362177 90.8517576,62.58851 C90.6316424,63.1109022 90.4117388,63.6335991 90.1916236,64.155903 C90.1540242,64.1540342 90.1162974,64.1516874 90.078825,64.1495578 C89.5756311,62.2217443 89.0726486,60.2938094 88.5692831,58.365731 C88.0761153,58.7002012 88.760849,60.6040691 88.9979582,61.316377 C89.3438721,62.3568595 89.5622035,63.3642717 90.0135661,64.564643 C89.5503925,65.5162491 89.0867948,66.4681157 88.6238716,67.4195484 C88.1643951,66.0206092 87.4693827,63.2314074 87.2024832,61.8107436 C87.0326703,60.9060308 86.7144564,60.00119 86.5570058,59.0810415 C86.4273838,58.3244852 86.3147125,57.0969958 86.068979,56.3482153 C85.530352,56.5336602 86.9361438,62.298233 87.2183312,63.1438357 C87.6207502,64.3481589 87.7565762,65.4707831 88.1351606,66.5916301 C88.5907717,67.9390728 88.2753613,68.5894965 87.6149726,69.4212454 C87.1153473,67.086383 86.615722,64.7520506 86.1162219,62.4174422 C85.8152146,63.4025999 86.4349452,65.0708654 86.56665,65.958979 C86.7180671,66.9797306 87.1315751,68.8013663 87.4986895,69.8282942 C87.0534024,70.7338327 86.6084984,71.6391946 86.1633396,72.5444295 C86.1101483,72.5338686 86.0568719,72.5229601 86.003978,72.5120081 C85.403663,69.0714773 84.8035185,65.6304167 84.2033319,62.1893671 C83.9094198,62.6162772 85.4604238,71.6133855 85.9130619,72.9136699 C85.6898453,73.3504896 85.4666276,73.7875698 85.2435384,74.2247836 C84.9900298,73.0207584 84.7365632,71.8168216 84.483224,70.612664 C84.4505104,70.5132269 84.4179243,70.4137902 84.3852532,70.3145261 C84.0242564,70.6079261 84.8569238,73.725285 85.1271287,74.501751 C84.5722728,75.4949484 84.0178442,76.487883 83.4633693,77.4809546 C83.3603852,75.2701696 83.2577834,73.0589542 83.1551815,70.8480036 C82.7096397,71.1498351 83.0354582,72.970687 83.0678745,73.5363209 C83.1175821,74.4006158 83.1361056,75.342055 83.1814371,76.3265604 C83.2334389,77.453832 83.3661624,78.0449767 82.8048912,78.8676848 C82.3887911,79.4779103 82.0777997,80.3970046 81.6237156,80.9995856 C81.5405722,80.1066072 81.6685374,78.2617589 81.6960677,77.3098956 C81.7321376,76.0568908 81.7872409,74.9061505 81.7841395,73.6282419 C81.7810381,72.402448 81.6961952,71.0566943 81.6341673,69.8255575 C81.5269347,67.6930937 81.4017739,68.0450804 81.9427371,66.1733777 C82.4977203,64.2538655 85.3641504,57.9266593 84.7684637,56.1127563 C84.5007225,58.0094953 82.1492165,64.9964752 81.3608524,66.0431296 C81.0796859,64.8720004 81.000366,62.6024664 80.7799951,61.110436 C80.6586995,60.2844737 80.1187981,58.1733459 79.0362727,56.331371 C79.8808774,58.9027861 80.0944509,60.4264209 80.4649667,62.6891329 C80.6206324,63.638349 80.6536859,64.6742273 80.7310515,65.6396463 C80.7744713,66.1811613 80.8043384,66.6048126 80.8439774,67.105084 C80.8602067,67.3071303 80.9369348,67.6958391 80.9250815,67.8912808 C80.9136106,68.080246 80.7457518,68.4493982 80.783861,68.5648719 C81.9214832,72.0295227 80.8782205,84.1855944 78.6284209,85.6574125 C78.3813697,82.7254555 78.1343606,79.7940504 77.8869274,76.8624907 C77.8046337,76.8864373 77.7222554,76.9100363 77.6398763,76.9338525 C77.8858656,79.9419118 78.1321517,82.9498829 78.3783104,85.9580746 C78.435198,85.9680705 78.4924676,85.9785009 78.5496535,85.988888 C78.2422308,86.4068885 77.9346808,86.8251076 77.6268761,87.2428421 C77.3926978,84.888728 77.157627,82.5350553 76.922812,80.1810626 C76.5387889,80.441433 76.8252236,82.3007544 76.8820262,82.8928485 C76.9812716,83.9376771 77.0564276,84.7846752 77.2495658,85.8125524 C77.4770309,87.0223509 77.5228731,87.5299311 76.9120215,88.3736683 C76.413416,89.0622535 75.9385167,89.7496686 75.4127637,90.4322487 C75.4049039,85.5682613 75.3971716,80.7041414 75.3889295,75.8399112 C74.9665424,76.453179 75.1640133,83.1880842 75.1673694,84.5878183 C75.1709806,86.0998842 75.1662223,87.4996624 75.1433227,88.9645702 C75.1064881,91.2974786 75.1162597,91.0223668 73.7525707,92.7550013 C73.8515611,90.0361284 73.9502962,87.3172554 74.0491601,84.5985039 C73.9844127,84.6206252 73.9194106,84.6431377 73.8549179,84.6651285 C73.9281623,85.44976 73.6557475,87.1277662 73.6517536,88.1222618 C73.6467404,89.3101149 73.5450309,90.4501696 73.5296088,91.6212878 C73.5051373,93.4873385 73.5239582,93.2776875 72.4858336,94.6506853 C71.8562884,95.4826892 71.2280618,96.4410312 70.5148587,97.2088869 C70.3156029,96.3801858 71.4001647,87.3778197 71.6670598,86.3678917 C72.1294683,84.6215248 74.7050931,77.7073907 74.1905457,76.1413444 C74.1373543,75.9785856 74.0346254,75.8630678 73.8989278,75.9097006 C73.6454613,75.9968819 73.5118453,77.9927543 73.4383463,78.3253126 C73.249585,79.180741 73.1164784,79.8761914 72.8989121,80.7011072 C72.6838095,81.5165527 71.7058014,84.7002841 71.3283674,85.2016384 C71.2442892,84.3027056 71.5269854,82.0877932 71.5613565,81.0141486 C71.5748668,80.5914102 71.5188713,76.6171403 71.0484753,76.7785954 C70.6612655,76.9117148 70.9660965,79.3054686 71.0102386,79.8231163 C71.0983104,80.8471707 70.9813912,81.8774798 70.9206374,82.841221 C70.7898682,84.9188877 70.6619026,86.8172273 70.461203,88.8180963 C70.2606307,90.8155763 70.1129516,92.7203516 69.8390077,94.7124447 C69.6277715,96.2541501 69.4253723,99.190589 68.0592641,100.034459 C67.9419624,96.2426807 67.8244491,92.450947 67.7072747,88.65886 C67.1730236,89.0208844 67.6340303,95.4240571 67.6782999,96.5938395 C67.7107585,97.4597417 68.0776606,100.069971 67.6521715,100.555639 C67.1683931,101.107541 65.6329814,103.034184 65.053147,103.290077 C65.4178399,101.917863 65.8400996,101.254656 66.0692643,99.5843028 C66.2524605,98.2505484 66.2185998,96.8769876 66.0626791,95.3577022 C65.9134709,93.9035684 65.4734521,92.1196913 65.220496,90.7061035 C64.9420488,89.1511403 64.779712,87.4246765 64.4963786,86.1143467 C63.5781043,81.8698409 64.8134454,72.9468015 68.994368,71.5099767 C71.5640835,70.626994 72.1987265,73.6171504 74.5068626,72.824126 C77.073945,71.941926 76.4597729,68.7298599 76.0946625,66.2619676 C75.8827885,64.8307727 75.5335185,63.6532189 75.434018,62.282175 C75.3216025,60.7296845 75.2588094,59.9045038 75.2649691,58.4701407 C75.2801788,54.7903194 77.0606944,48.0484034 81.0547227,46.6760569 C83.3992683,45.8701291 84.1192592,49.4951521 86.1804703,48.7867962 C86.2774214,48.7533317 86.3747125,48.7199108 86.4716641,48.6868375 C90.0819239,47.4459203 86.1422338,37.1451033 90.2960111,35.3127543 C91.4456115,35.0264811 91.6882955,36.7592381 91.8875879,36.8682805 C92.6025705,37.2593792 93.4812043,36.4928272 93.9484969,36.0117647 C94.6090561,35.3318284 95.2832101,34.4508405 96.1764218,33.7825116 C98.2759526,32.2112881 98.2203454,33.3915432 99.3244824,34.9847154 C100.222279,36.2801317 101.456344,36.545761 103.549972,35.8514874 C105.707322,35.1360445 108.872303,34.5996527 109.549852,36.6620648 C109.593357,36.794662 109.637117,36.9274336 109.680621,37.0597703 C110.104155,38.3500645 108.379771,41.3294337 108.884152,42.8653217 C109.56128,44.9261651 113.974213,43.221044 115.279358,47.1951803 C115.788882,48.7458383 113.094555,51.3660675 112.115791,52.376128 C110.934022,53.5958394 107.846543,55.5062666 108.465895,57.3922316 C108.48752,57.4585954 108.509527,57.5246985 108.530897,57.5906715 C109.088472,59.2874074 112.401851,59.4513353 113.857728,59.7884526 C115.803678,60.2392221 117.894501,60.446789 119.197693,62.1240103 C120.759615,64.1336994 119.603724,66.3901192 118.58374,67.9220442 C117.897308,68.9525311 115.51984,71.7720193 113.850383,72.144428 C108.850946,73.270397 103.851499,74.395803 98.8521926,75.5216396 C98.4959547,75.6439805 98.1396315,75.7664517 97.7834357,75.8886613 C96.1524708,76.4492559 93.9949911,77.84915 94.4862511,79.3454082 C94.5513808,79.5443692 94.6167656,79.7431137 94.6821928,79.9420747 C95.6986932,83.0378823 104.969461,82.6272679 106.03953,85.8854027 C106.061283,85.9519404 106.083162,86.0181743 106.104915,86.0845381 C106.5389,87.4060393 105.457272,88.5214441 104.38066,89.0993311 C103.194855,89.7358944 101.908918,90.6245665 100.607679,91.0717749 C99.668417,91.3944235 98.7294117,91.7173338 97.7905316,92.0396788 C96.6615316,92.4277794 95.5241576,92.490232 94.5138179,92.6200474 C93.3028261,92.7755923 92.3876436,93.0503045 91.0897284,93.3384455 C88.9785971,93.806991 86.194039,94.6972362 83.9924124,95.4539204 C78.3391247,97.3965923 76.017737,101.071159 69.9783823,103.146474 C69.65524,103.261948 69.3320977,103.377336 69.0088712,103.492418 C67.7069526,103.72945 66.4045267,103.966223 65.1024893,104.203428 C65.8301322,103.421839 66.5577298,102.640506 67.2854579,101.85905 C67.5751215,102.20569 69.462146,101.633231 69.9742546,101.487943 C70.8873459,101.229702 71.7555736,101.207581 72.6954681,100.884931 C72.3894472,100.412823 70.6122537,101.05221 70.0562464,101.15282 C69.234668,101.301759 68.10189,101.578427 67.2854471,101.85905 L67.2855518,101.859111 Z M79.0336123,120.141352 C79.7490347,119.934069 83.1474042,119.762774 84.1786365,119.654318 C84.303575,119.641327 86.4559067,120.256328 86.9193613,120.368865 C87.9099162,120.609613 88.8628824,120.72954 89.8589588,120.969034 C93.5969344,121.867489 97.8672392,122.58576 101.829477,124.436341 C103.256385,125.102881 104.68359,125.769345 106.110795,126.435995 C107.526276,127.096938 109.676997,128.548671 110.876757,129.420943 C111.796557,130.089326 114.451004,132.63149 114.785355,132.796922 C114.055514,130.624052 106.161462,125.766681 104.708888,125.088412 C104.398603,124.94344 104.088681,124.798457 103.778093,124.653616 C100.970962,123.342721 97.6390815,122.163321 94.9610764,121.501484 C93.5681933,121.156836 92.1858841,120.773586 90.751863,120.388661 C89.4492657,120.039004 87.4971732,119.72135 86.4901795,119.351019 C87.5787803,119.03582 89.2188593,118.880649 90.4514529,118.612968 C91.5039395,118.383727 93.949426,119.716829 95.2593046,120.328719 C97.2587653,121.243001 99.2951856,121.662931 101.176956,123.191111 C100.841741,121.705218 92.7557755,118.930272 91.7207777,118.444981 C92.1446716,118.189261 93.0385844,118.117011 93.5991047,118.005853 C94.4909807,117.82856 94.6577327,117.638085 95.7526691,118.136904 C97.0209289,118.714825 99.0117647,119.317063 100.493894,119.88679 C102.060916,120.489079 103.5926,121.139472 105.284561,121.778183 C105.859753,121.995185 109.735783,123.689963 110.02671,123.530296 C109.94451,123.412673 109.972925,123.389363 109.793165,123.30549 C109.743373,123.246229 109.693673,123.187057 109.643942,123.127916 C104.884824,121.308913 100.125928,119.48951 95.3667929,117.670307 C95.6884704,117.606242 97.3760235,117.249387 97.7171323,117.282923 C98.8551026,117.708684 107.607656,120.578399 110.243316,121.668007 C106.534905,119.282849 102.28285,118.549408 98.2923916,117.125766 C98.9006201,116.792613 101.542426,116.240043 102.332069,116.082253 C104.179123,116.561712 113.07735,120.191618 112.958706,120.051555 C112.136605,119.600224 105.42595,116.514642 102.922994,115.959252 C103.504204,115.738968 106.010569,114.956328 106.248368,115.067375 C108.736302,116.217139 111.224206,117.366762 113.712293,118.516181 C114.389382,118.922148 115.066379,119.327662 115.743463,119.733081 C115.836482,119.776629 115.929743,119.819988 116.022732,119.863446 C116.110111,119.4164 114.869588,118.878012 114.44164,118.658988 C113.663949,118.26136 113.187018,117.961682 112.341752,117.566826 C111.383267,117.109942 110.424811,116.652845 109.466388,116.195959 C108.483318,115.792909 107.500068,115.389687 106.517117,114.986148 C106.509574,114.945031 106.502245,114.904059 106.494791,114.862483 C107.512374,114.514591 107.607521,114.384015 108.549841,114.791102 C110.439258,115.606064 112.21883,116.327759 114.052974,117.095565 C114.332274,117.226141 114.611361,117.356512 114.890447,117.486882 C115.076822,116.53477 109.129694,114.710694 108.179315,114.328403 C108.419311,114.23651 108.644699,114.061094 108.899756,114.052561 C110.798984,113.986695 123.938474,119.490038 126.364572,120.420825 C125.566776,119.427464 111.957278,114.846791 109.80761,113.84273 C111.783236,112.650823 122.041409,115.514641 125.456439,117.109409 C127.007923,117.833781 129.684595,121.128571 130.553923,122.298914 C131.176015,123.136376 131.785953,124.272401 132.115397,125.215915 C132.327982,125.824308 132.45763,126.174318 132.660955,126.799205 C132.816879,127.278205 132.682147,128.090238 133.244411,128.369005 C133.880337,127.05467 132.120998,123.691019 131.440074,122.672232 C130.812592,121.732899 130.327303,121.093825 129.560042,120.181547 C129.156017,119.701122 127.501446,118.076072 127.307244,117.767157 C128.287052,118.178233 129.266587,118.58923 130.246541,119.000269 C130.898279,119.304482 131.54959,119.608886 132.201119,119.913259 C133.298999,120.425911 134.767452,121.289656 135.757962,121.945183 C136.248559,122.269234 136.711866,122.622151 137.293458,123.011359 C137.485918,123.140061 137.875883,123.41285 138.077311,123.577339 C138.423864,123.860405 138.513236,124.246923 138.541298,124.260126 C138.7557,124.360234 138.852309,124.325022 138.957468,124.107873 C139.334864,123.327542 134.350045,120.339374 133.173441,119.790212 C131.932606,119.210378 130.691613,118.630755 129.450897,118.051217 C123.911614,115.464317 118.510943,114.510151 113.350547,112.566329 C114.55272,112.162756 115.75477,111.759187 116.95697,111.35547 C118.804292,111.773865 120.651608,112.191894 122.498741,112.610111 C120.531608,111.691402 119.05251,111.596147 117.341894,111.241137 C119.033689,110.22052 120.117926,110.226582 122.334788,110.776534 C124.171219,111.232382 126.012421,111.47957 128.059927,112.435831 C128.090411,112.372951 128.120864,112.310285 128.150863,112.247723 C127.9339,112.146229 127.716755,112.044742 127.49961,111.943253 C126.303562,111.384678 124.925786,111.062353 123.824515,110.795412 C122.877567,110.566203 120.953021,110.321962 120.299115,110.081583 C121.04223,109.633397 121.928387,109.290596 122.890529,109.445848 C123.840416,109.598989 124.821511,109.679261 125.85055,109.878812 C127.433546,110.18677 130.287261,110.518889 131.943986,111.247185 C131.97444,111.184518 132.004801,111.121521 132.035165,111.05913 C129.19184,109.730925 125.373699,109.679553 122.701704,109.124895 C123.211834,108.816998 124.148957,108.487657 124.746515,108.262859 C125.991377,107.794898 125.691746,108.081628 127.117597,108.346582 C128.40843,108.585915 131.104619,109.157106 132.348477,109.703967 C132.378566,109.641311 132.4092,109.578275 132.439837,109.515786 C132.315101,109.457377 132.191493,109.399696 132.067335,109.341666 C130.51353,108.616141 127.395005,108.142551 125.84297,107.820506 C126.591868,107.368962 126.82733,107.261153 127.823749,107.451373 C128.547146,107.589945 129.390842,107.751828 130.190253,107.974618 C130.933421,108.181522 131.844144,108.343909 132.57534,108.55098 C133.084679,108.695506 134.616509,109.444519 134.939031,109.066016 C134.784041,108.993738 134.628474,108.921325 134.473666,108.84892 C133.472703,108.381346 132.087613,108.139619 131.006723,107.851386 C130.17731,107.630554 128.060319,107.340955 127.552357,107.117701 C128.254327,106.29477 133.005753,107.287812 134.360162,107.615071 C136.451299,108.119565 139.308483,108.323924 141.522036,109.138282 C141.552489,109.075433 141.582759,109.01259 141.613213,108.949924 C140.239784,108.308444 136.582568,107.665791 135.156183,107.431969 C133.160288,107.104994 130.809972,106.870892 128.887576,106.465241 C129.146297,106.325336 129.449067,106.264398 129.707998,106.124153 C133.902304,103.382593 141.525319,106.25297 144.708865,107.739705 C145.298266,108.015016 145.887911,108.29044 146.477311,108.565569 C144.76234,107.297922 141.345726,106.029933 139.922014,105.632313 C138.57797,105.256104 137.50465,104.805293 136.240469,104.691873 C135.318933,104.608944 133.387999,104.696328 132.76969,104.588614 C135.173688,103.138307 135.214667,103.27195 138.269709,104.010658 C139.859862,104.395309 143.142565,104.969268 144.598934,105.609462 C143.619941,104.66992 140.759529,104.299127 140.118907,104.165462 C139.105534,103.954093 136.680154,103.505275 135.863534,103.146483 C137.539706,102.135378 139.223479,102.299898 141.249083,102.236205 C142.085856,102.209607 143.32739,102.141905 144.135738,102.231583 C144.563728,102.278581 147.137971,102.955373 147.217413,102.79079 C144.331617,101.503738 140.855538,101.572203 140.531885,101.515946 C140.975545,101.248381 143.115025,100.893673 143.168009,100.783938 C143.242685,100.629731 143.249186,100.475299 143.118813,100.414226 C142.677607,100.208197 139.841213,101.129232 139.185291,101.233447 C140.203118,99.1297701 143.175515,97.2311683 144.278728,94.951247 C144.366632,94.7690313 144.295092,94.4967639 144.181631,94.4439276 C143.737194,94.2362288 143.623445,95.0065952 143.283273,95.4605622 C142.951966,95.902964 142.760191,96.1349466 142.419679,96.5777678 C141.944376,97.196008 141.074106,98.1253333 140.56073,98.657133 C139.674195,99.5742494 137.665794,101.991673 136.699815,102.152494 C137.914939,100.024993 139.13013,97.8976645 140.345105,95.7700196 C139.761994,95.8881175 136.922247,101.194177 136.414023,102.252006 C135.576562,102.62866 134.739653,103.005659 133.902315,103.382613 C135.387815,101.113228 136.873201,98.8439627 138.358701,96.5745781 C138.279191,96.5344094 138.199957,96.4945065 138.120721,96.4542389 C136.566664,98.8505779 135.012639,101.246887 133.458886,103.642905 C132.319308,104.187706 131.179822,104.732228 130.040034,105.276996 C130.597034,104.331046 131.69126,103.230968 132.344981,102.452432 C133.221629,101.408985 133.649798,100.43076 134.514688,99.2369869 C135.007535,98.5564825 138.459802,92.2664328 138.460905,92.1185045 C137.567999,91.9630533 136.604274,94.5923958 135.982981,95.5723254 C135.171573,96.8515677 134.429607,98.2444604 133.657923,99.6957111 C132.923816,101.076551 131.950237,101.983561 131.069224,103.054466 C130.429826,103.830583 128.718089,105.415745 128.365761,106.087491 C127.852998,106.317506 127.340176,106.547765 126.827744,106.777864 C127.230611,105.850121 127.633598,104.92262 128.036495,103.994847 C128.226472,103.582776 128.416632,103.1707 128.607067,102.758705 C129.14655,101.740622 129.686528,100.722942 130.225865,99.7054394 C129.790177,99.4976098 128.788034,101.806445 128.532039,102.262965 C128.47818,102.353598 128.425173,102.444451 128.371226,102.535543 C127.715573,104.007305 127.059488,105.478896 126.403564,106.951134 C125.489585,107.324582 124.575603,107.698215 123.661656,108.071811 C124.439539,106.625825 125.216908,105.180002 125.994757,103.733983 C125.528216,103.652658 124.816653,105.262742 124.572547,105.721567 C124.110649,106.589404 123.633992,107.434053 123.265374,108.262908 C122.744152,108.485781 122.222871,108.70902 121.70171,108.931829 C121.675962,108.904366 121.650454,108.87647 121.624977,108.848908 C122.602182,107.112607 123.579623,105.376366 124.556888,103.639755 C123.96979,103.53777 123.139808,105.382954 122.81556,106.060055 C122.34161,107.048808 121.798857,107.925145 121.289692,109.102163 C120.295471,109.464943 119.300765,109.827617 118.306845,110.190447 C118.94811,108.864955 120.385703,106.375775 121.180587,105.168431 C121.6869,104.399673 122.086552,103.527735 122.61248,102.756461 C123.044786,102.122197 123.816423,101.160947 124.159803,100.451619 C123.643527,100.210855 120.65036,105.334087 120.265944,106.138386 C119.718827,107.284247 119.036691,108.186148 118.530416,109.255405 C117.922143,110.541168 117.243434,110.789941 116.190608,110.929507 C117.45314,108.902879 118.715303,106.876632 119.977748,104.850273 C119.076873,105.349839 118.363796,106.98039 117.841601,107.710735 C117.241447,108.550185 116.273486,110.147807 115.824202,111.141536 C114.874849,111.483604 113.925895,111.82581 112.976845,112.167749 C112.945919,112.123202 112.915172,112.078346 112.884732,112.033725 C114.842895,109.1418 116.801549,106.249613 118.760164,103.357404 C118.252185,103.460329 113.117967,111.009725 112.540314,112.2595 C112.076305,112.418663 111.612115,112.578012 111.147923,112.737547 C111.801951,111.695341 112.455947,110.653229 113.110188,109.611046 C113.155731,109.516793 113.201365,109.422628 113.246818,109.328528 C112.783326,109.288813 111.216797,112.109672 110.871788,112.855915 C109.782725,113.184926 108.694152,113.514045 107.605451,113.843231 C109.06711,112.181386 110.529344,110.519498 111.991394,108.8578 C111.461228,108.76542 110.430732,110.301564 110.061128,110.730965 C109.496495,111.387216 108.855841,112.077299 108.204555,112.816982 C107.458893,113.663997 107.143723,114.181429 106.168477,114.383343 C105.445262,114.533256 104.583097,114.978364 103.837868,115.096391 C104.398374,114.39628 105.771964,113.158099 106.452988,112.49251 C107.349345,111.61623 108.188354,110.826735 109.073833,109.90533 C109.92311,109.021413 110.796918,107.994422 111.607518,107.065728 C113.011716,105.457272 112.677172,105.623526 114.366502,104.652921 C116.099129,103.657663 122.556313,101.097441 123.387855,99.3788299 C121.877672,100.557241 115.332576,103.94976 114.038407,104.155017 C114.649688,103.117262 116.169181,101.429596 117.04711,100.203237 C117.533619,99.5248301 118.611759,97.6311648 119.112599,95.5541736 C117.933902,97.9906066 117.029128,99.2349784 115.723843,101.120019 C115.176439,101.910962 114.480634,102.679072 113.865649,103.427279 C113.520715,103.846974 113.247907,104.172471 112.928903,104.559871 C112.800224,104.716485 112.585398,105.049399 112.441106,105.181754 C112.301589,105.309715 111.924406,105.458657 111.871605,105.568195 C110.283193,108.850715 101.088416,116.87035 98.4476347,116.366245 C100.30663,114.085555 102.165271,111.805292 104.023715,109.524623 C103.947883,109.484683 103.872232,109.444434 103.796429,109.40434 C101.883806,111.739035 99.9714567,114.073873 98.0588629,116.408782 C98.0928407,116.45549 98.1267914,116.502775 98.1607121,116.549972 C97.6492031,116.637103 97.1374507,116.724302 96.6258518,116.810976 C98.0927031,114.954894 99.5586057,113.09851 101.024915,111.242073 C100.567803,111.162603 99.4822538,112.699061 99.1118111,113.164436 C98.4574033,113.984965 97.9230917,114.646452 97.3480002,115.52001 C96.6712282,116.548277 96.3516095,116.945244 95.3260906,117.127845 C94.4890923,117.276811 93.6699597,117.441403 92.8176046,117.567191 C96.1907604,114.062872 99.5640998,110.558545 102.937149,107.053786 C102.207298,107.201519 97.6708881,112.183379 96.7009653,113.192595 C95.6531937,114.282793 94.6774032,115.286403 93.6433202,116.324262 C91.9962492,117.976829 92.194387,117.785718 90.0098422,118.084773 C91.9697378,116.197744 93.9294497,114.310537 95.8891699,112.423508 C95.8272278,112.394443 95.7648308,112.365483 95.7031625,112.336502 C95.2107993,112.951798 93.8491993,113.96962 93.1554917,114.682225 C92.3267334,115.533213 91.4616212,116.282646 90.6370004,117.114365 C89.3231293,118.43969 89.4823038,118.301954 87.781775,118.568464 C86.7509596,118.729639 85.633331,118.98261 84.5868982,119.039526 C85.0192297,118.304994 92.0529672,112.582633 92.9465104,112.041553 C94.4922676,111.106538 101.147978,107.922105 101.865711,106.438151 C101.94051,106.284122 101.946858,106.129664 101.816852,106.068946 C101.573962,105.955586 100.091397,107.298479 99.8075121,107.486645 C99.0774981,107.970864 98.4986488,108.378665 97.7691101,108.820926 C97.0479221,109.258085 94.1327963,110.868889 93.5130231,110.967345 C94.0769935,110.262301 95.8189555,108.865404 96.5894962,108.116965 C96.8928735,107.822257 99.6133536,104.924509 99.1628228,104.713886 C98.7918149,104.540665 97.3482509,106.474341 97.0204158,106.877369 C96.3724013,107.675192 95.5725838,108.335116 94.8594103,108.98617 C93.3220743,110.389878 91.911326,111.666537 90.3770344,112.966424 C88.8451886,114.263962 87.4157891,115.531556 85.8349061,116.77425 C84.6119969,117.736524 82.4265813,119.708223 80.8576842,119.366273 C83.4072947,116.557212 85.9567223,113.748035 88.5066391,110.93884 C87.8708477,110.828136 83.7544507,115.754436 82.9736963,116.626659 C82.3955389,117.272084 80.8462487,119.404598 80.2028041,119.458388 C79.4714194,119.519333 77.0285784,119.838657 76.4337223,119.619944 C77.6492803,118.886193 78.4137307,118.702448 79.7389026,117.660088 C80.7971867,116.827924 81.7269848,115.816346 82.6702092,114.615152 C83.573004,113.465487 84.4956661,111.87661 85.2956653,110.684042 C86.1755354,109.372069 87.2580625,108.017387 87.9644811,106.877994 C90.2524114,103.186865 97.3395054,97.626308 101.345112,99.4970557 C103.806982,100.646965 102.186369,103.238764 104.397584,104.271676 C106.857016,105.42032 108.646506,102.683113 110.09821,100.654233 C110.939992,99.4775374 111.506746,98.3878527 112.387578,97.3324874 C113.385164,96.1376289 113.913213,95.5004238 114.914036,94.4729082 C117.481196,91.8364318 123.44532,88.2235534 127.271695,90.0108551 C129.518065,91.0597774 127.51783,94.1675484 129.492607,95.0898374 C129.585594,95.133113 129.678795,95.176656 129.771511,95.2202133 C133.230528,96.8354694 137.552101,86.688943 141.812935,88.2563176 C142.83875,88.8489695 141.809649,90.263993 141.87726,90.4808717 C142.119896,91.2588732 143.284424,91.3178122 143.95474,91.2963735 C144.90223,91.2661312 145.999161,91.1007083 147.105944,91.2404297 C149.707684,91.5686427 148.847809,92.3790191 148.535349,94.2920493 C148.281298,95.8475559 148.984488,96.8958869 150.972801,97.8508245 C153.021657,98.8347993 155.670963,100.647532 154.725679,102.601772 C154.664864,102.727376 154.604111,102.853282 154.543477,102.978698 C153.951829,104.201069 150.641767,105.14639 149.93767,106.601588 C148.993173,108.554407 153.352048,110.393326 151.530224,114.158711 C150.819568,115.628106 147.061267,115.641304 145.655556,115.687974 C143.958179,115.744435 140.410139,114.973939 139.545562,116.760826 C139.515017,116.823586 139.484929,116.886424 139.454473,116.948726 C138.676907,118.55658 140.946478,120.976167 141.759567,122.230006 C142.846236,123.906033 144.206059,125.507751 143.978401,127.619516 C143.705907,130.150168 141.306987,130.970351 139.509108,131.363785 C138.299494,131.62822 134.630705,132.004862 133.171102,131.113048 C128.792644,128.450102 124.41457,125.786744 120.036298,123.123792 C119.695057,122.964333 119.353664,122.804909 119.012544,122.645385 C117.449904,121.915679 114.925495,121.423967 114.23949,122.841543 C114.14813,123.029907 114.057105,123.218292 113.965959,123.406862 C112.54664,126.33992 119.500709,132.484565 118.007161,135.571604 C117.976588,135.634577 117.946317,135.697421 117.915864,135.76027 C117.310055,137.01235 115.757171,137.063342 114.581288,136.731162 C113.286097,136.365338 111.743748,136.111309 110.497058,135.529087 C109.597279,135.108715 108.697502,134.688709 107.798209,134.268384 C106.716477,133.76329 105.854935,133.018129 105.03798,132.409669 C104.058815,131.680333 103.209657,131.242205 102.075855,130.547869 C100.231756,129.418397 97.6102958,128.12447 95.5009411,127.139404 C90.084813,124.609742 85.8623779,125.640433 80.0763944,122.938001 C79.7637306,122.796593 79.4511266,122.655122 79.1386736,122.513374 C78.0374955,121.779492 76.9361327,121.04507 75.8347488,120.31123 C76.9011088,120.254465 77.9672582,120.197853 79.0335867,120.141244 C79.0011572,120.591812 80.7562327,121.490857 81.225538,121.742086 C82.0617501,122.19061 82.7016674,122.777819 83.6019022,123.19863 C83.7097236,122.646443 81.987162,121.871837 81.5173136,121.557976 C80.8228585,121.094397 79.8158163,120.506521 79.033579,120.141236 L79.0336123,120.141352 Z" id="Shape-Copy" transform="translate(85.472835, 89.041830) rotate(-57.000000) translate(-85.472835, -89.041830) "></path>
        </g>
        <path d="M5,157.5 L277,157.5" id="Line-2" stroke="#000000" stroke-width="2" stroke-linecap="square" fill-rule="nonzero"></path>
        <text id="TWIN-OAKS" font-family="PlayfairDisplay-Regular, Playfair Display" font-size="48" font-weight="normal" letter-spacing="0.1215" fill="#000000">
            <tspan x="12" y="216">TWIN OAKS</tspan>
        </text>
    </g>
</svg>