<?xml version="1.0" encoding="UTF-8"?>
<svg width="71px" height="68px" viewBox="0 0 71 68" version="1.1" xmlns="http://www.w3.org/2000/svg" xmlns:xlink="http://www.w3.org/1999/xlink">
    <!-- Generator: Sketch 51.1 (57501) - http://www.bohemiancoding.com/sketch -->
    <title>oak 7</title>
    <desc>Created with Sketch.</desc>
    <defs></defs>
    <g id="Twin-Oaks-Website" stroke="none" stroke-width="1" fill="none" fill-rule="evenodd">
        <g id="Desktop-HD-Copy-11" transform="translate(-685.000000, -1110.000000)" fill="#FAF9F6">
            <g id="oak-7" transform="translate(720.500000, 1143.500000) scale(1, -1) translate(-720.500000, -1143.500000) translate(680.000000, 1105.000000)">
                <path d="M50.9970019,15.0199089 C51.1425213,14.8265315 51.2881542,14.6330437 51.4340084,14.4394449 C52.4415294,13.5181298 56.8296821,17.2845641 58.7700416,18.0406527 C57.5708547,16.6783611 56.0588431,15.7350922 54.5911744,14.6534344 C53.8745804,14.2749958 53.1579865,13.8965572 52.4415066,13.5181186 C52.5991527,13.3027865 52.7570235,13.0875654 52.9148932,12.8721227 C53.5431208,12.0145651 55.2442144,13.2237296 56.165063,13.8817007 C56.746917,14.297617 57.3287682,14.7134235 57.9109587,15.1293398 C60.7155774,17.133414 63.1596403,19.7292684 64.9702336,22.0119824 C65.9144259,23.2028515 70.3224428,28.9043696 70.8196323,29.2763868 C70.8073934,27.2968181 62.2274635,17.5574359 59.3176516,15.4780655 C57.6445133,14.2825409 55.9714834,13.0871261 54.2983565,11.8913902 C55.2579325,10.6418669 56.2946466,11.0205252 57.5856879,11.9431719 C59.0406566,12.9826853 60.4953002,14.0223113 61.9502489,15.0618191 C68.5896806,19.8062286 79.2919885,32.6885466 75.0223992,38.5153801 C74.5490125,39.1615984 74.0751753,39.8079266 73.6017886,40.4541449 C69.3528763,46.2527018 60.4244279,46.2081183 54.1082421,45.099868 C50.3858093,44.4467749 46.2552551,43.5591692 45.470042,42.9979975 C44.8878514,42.5823037 44.3059974,42.1663845 43.7241463,41.7505808 C43.1209593,41.3195856 43.1835008,40.2957031 43.2039354,39.7378575 C47.0888467,42.5138879 64.6762578,44.5467906 66.4191161,42.5422743 C66.4123791,42.5395022 56.7912428,42.4476922 55.1910987,42.2883554 C52.2442108,41.9950732 46.2944216,41.2897557 43.3015024,39.1510637 C42.9822807,38.9230911 43.1758572,38.6566432 43.1806853,38.4084909 C44.8684202,39.5587759 52.7877675,41.021638 53.8782875,40.1448952 C51.9128761,39.3296933 45.4478271,39.3720519 43.7146086,38.1335041 C43.5690892,38.0296079 43.4234563,37.9253794 43.2781639,37.8217041 C42.6151305,37.3477955 42.8109518,36.9185745 42.9757833,36.4904604 C44.1428595,36.9602655 47.4377116,38.9977139 48.1686797,37.9094122 C46.3824738,37.2101922 44.596034,36.5108623 42.8095971,35.8112001 C42.8372189,35.2954906 42.8647283,34.7798909 42.8925747,34.263849 C45.1214027,35.856775 56.0239041,38.7493476 57.3371653,37.6935386 C55.3807377,36.8822177 43.1125211,35.6228257 43.0024908,32.9138678 C42.890432,30.1571298 46.7656787,20.8100288 49.2242469,17.4553115 C49.7075157,16.7921301 50.1908958,16.1289458 50.6742759,15.4658742 C51.6938095,16.0773861 54.9273521,17.8903005 56.9500203,18.7093721 C55.009872,16.8179536 53.1250866,16.1769484 50.9969799,15.0198985 L50.9970019,15.0199089 Z M12.6073462,46.7871212 C12.4170256,46.8986681 12.2264813,47.0103259 12.0359363,47.1220944 C11.0998294,47.9336378 14.1304721,52.197261 14.6397911,53.9970764 C13.5072982,52.8009969 12.7869995,51.3650791 11.9357797,49.9555538 C11.657092,49.2816165 11.3785156,48.6075666 11.0998294,47.9336293 C10.8881749,48.0540467 10.676521,48.174686 10.4648654,48.295102 C9.62240119,48.7747758 10.5682784,50.4038474 11.083322,51.2861385 C11.4088324,51.8435391 11.7343428,52.4010523 12.0598531,52.9586754 C13.6285654,55.6458908 15.7718476,58.066991 17.6885069,59.8943224 C18.6881677,60.8476824 23.485828,65.3097655 23.7789853,65.7877918 C21.9712211,65.5913095 13.8743537,57.0332343 12.2469159,54.2452315 C11.3110315,52.6421045 10.37515,51.0390789 9.4392656,49.4360731 C8.20751454,50.1742128 8.45633458,51.1336703 9.17843093,52.3705564 C9.99214982,53.7643382 10.806094,55.1584522 11.6200354,56.5522227 C15.3337125,62.9132694 26.1040407,73.657467 31.8284932,70.3981129 C32.4634572,70.0368599 33.0984211,69.6751647 33.7333823,69.3139118 C39.4303129,66.0704139 40.2256222,58.1096565 39.8046667,52.376975 C39.5564079,48.9986283 39.1318624,45.2343232 38.6928337,44.482093 C38.3673234,43.9243601 38.041813,43.3667342 37.7164167,42.8092237 C37.3788937,42.2311987 36.4373937,42.1913918 35.9257189,42.1570178 C38.0988559,45.8794149 38.309385,61.742912 36.3143327,63.1085242 C36.3124239,63.1020931 37.129623,54.5195143 37.1340037,53.0786199 C37.1419758,50.4251139 37.054507,45.056437 35.3804704,42.1890401 C35.2018272,41.8832278 34.9403181,42.0308121 34.7128338,42.0118513 C35.6062747,43.6237373 36.2013763,50.8183994 35.297942,51.7077879 C34.7371985,49.880017 35.3812564,44.1225963 34.4116881,42.461939 C34.3303949,42.3225608 34.2487647,42.1830719 34.1675836,42.0436935 C33.7967121,41.4084534 33.3860894,41.5430629 32.9792856,41.6497309 C33.2991804,42.7337095 34.8528483,45.8609129 33.7897475,46.4103065 C33.3181576,44.7530711 32.846003,43.0953849 32.3744131,41.4381635 C31.9003534,41.414324 31.4265161,41.3905953 30.9526788,41.3667559 C32.1993629,43.5024457 33.8217356,53.489324 32.7337197,54.5606795 C32.1755573,52.7412226 32.1736493,41.6904438 29.7084588,41.338592 C27.1998209,40.9805553 18.2949471,43.558551 14.9988601,45.4351187 C14.3477281,45.8039111 13.6964821,46.1727036 13.0452389,46.541496 C13.5085209,47.5071636 14.8623234,50.558516 15.4214954,52.4378381 C13.8745639,50.5315631 13.4656296,48.7919341 12.607334,46.7870854 L12.6073462,46.7871212 Z M13.6015056,22.2725409 C13.4744007,22.0548802 12.5382936,22.7868084 12.4252231,22.9012384 C10.2358069,25.1106642 9.61982013,30.6896608 9.35438717,33.1591015 C9.18191978,34.7630029 8.88796224,45.0719891 8.75602864,45.367823 C7.96487763,43.9398897 8.421312,36.9502468 8.60534426,35.2570882 C8.78758033,33.5805576 8.87965293,31.8892748 9.18888095,30.2883812 C9.44803123,28.9466042 10.1189244,26.6646704 10.190561,25.6073969 C8.01495422,29.1221133 6.34326761,34.6769678 6.99857207,38.0106184 C5.63039835,30.9822839 9.23346344,27.6959769 9.40099002,25.2209879 C5.43861834,27.9329284 3.66567141,44.859774 6.13456382,49.088812 C6.46445202,49.6536422 6.57235751,49.6078477 6.95692714,50.014008 C9.16318726,48.3324896 11.3696584,46.6509824 13.5759385,44.9694556 C15.8956028,43.3616731 24.4511633,41.1582294 26.6356256,40.7948867 C32.6091149,39.8013875 33.5757724,41.5272584 37.9851383,41.8205406 C38.7331699,41.4936617 39.4817662,41.1668926 40.2299119,40.839794 C41.9235959,37.4152303 36.9008272,30.8151001 33.9217116,27.8083199 C30.7674547,24.6249239 26.43746,21.2300449 22.7178221,20.9825685 C23.8307759,22.0852846 27.3457084,24.0715028 29.4316911,25.8988343 C31.0748491,27.3386302 34.0688749,30.7657569 35.3730668,32.9998035 C35.8612754,33.836072 36.3498204,34.6726728 36.8380289,35.5089441 C36.6970009,35.5893332 36.5558604,35.6693897 36.4147206,35.7500008 C36.1299696,35.2619003 35.8451074,34.7740224 35.5601296,34.2862542 C33.0973034,30.0674398 26.6446008,23.5878511 22.2050037,21.5530642 C28.6482747,27.6059695 32.3543085,31.3318308 34.8691181,40.0022064 C33.2329218,34.7926697 24.890363,23.4717595 19.413065,20.6352866 C20.2710242,21.7209268 21.1290946,22.8066797 21.9870537,23.8925566 C23.0645257,25.8603725 27.8795747,33.1090305 26.5905554,34.3785192 C24.877221,30.6647684 23.3320863,27.0098801 21.1221271,23.5624754 C20.2341877,22.0418462 19.4895244,21.5876749 18.5339925,20.5785363 C17.5528583,22.7760994 23.6197677,33.2629464 22.2279053,34.6335435 C20.6607645,29.960783 19.1798568,25.5451309 17.6129385,20.8724831 C16.5544409,21.2197639 15.3512127,21.5409875 14.2929517,21.8884909 C12.4590262,25.4410315 11.6033115,34.4107895 11.8576331,40.5376532 C10.5698544,37.8360235 11.7722975,24.0733915 13.6015096,22.2725623 L13.6015056,22.2725409 Z M21.9543915,19.3356072 C26.5630553,20.0748538 30.536122,22.0825865 34.4064025,26.0256367 C37.4175175,29.0932791 45.5077625,39.4876527 40.744235,42.19981 C40.6734965,42.2398383 40.6030946,42.2799775 40.5325805,42.3202274 C39.9609453,42.645777 39.8906548,42.5526352 39.352368,42.7135253 C39.5559382,43.0620256 39.7591718,43.4104161 39.962742,43.7588067 C40.0541407,43.9154823 40.14408,44.151437 40.2318857,44.4524812 C40.5874876,44.4303049 40.9287182,44.3643304 41.2519812,44.2475721 C41.6997683,43.4747287 42.1478919,42.7016601 42.5957902,41.9288168 C42.7717385,37.1218834 40.9661079,35.8787842 42.7486082,29.5252573 C43.4005273,27.2014015 46.820126,18.1898426 48.8687474,15.8615314 C50.986527,13.6640809 53.1041983,11.4667487 55.2219807,9.26928701 C54.8151769,8.80702132 54.8783944,8.69536265 54.2889056,8.27434583 C49.8746912,5.12009941 30.8812718,5.11345273 27.4199113,9.09475802 C30.1864643,9.19488413 34.2450653,5.66796934 41.8920237,7.94901876 C38.2651615,6.86016217 31.9084488,8.03805674 27.7587861,9.99356447 C28.9409066,10.036143 31.5507222,9.56988617 33.0696983,9.44181637 C34.8820656,9.28913244 36.7703418,9.38160755 38.6520926,9.37550921 C40.5528292,9.36863457 48.3643852,9.66967854 49.8596612,10.6885675 C49.5162973,10.7977858 38.0378855,9.94322062 36.237759,9.9475466 C33.4661523,9.95397772 27.2024176,9.98602246 24.5005452,12.1045255 C24.3605276,12.2141874 23.4412632,13.144374 23.668525,13.3067024 C25.8761312,11.5314883 41.2916431,11.7952744 44.1442153,13.4968644 C37.3715096,12.5246543 27.3162923,12.4302939 23.163578,14.0115769 C22.657516,15.1179543 22.1641425,16.3839985 21.6578551,17.490159 C26.6671682,19.7183251 31.4008067,21.8240794 36.4100056,24.0522398 C34.7300197,25.4028885 23.7781188,17.6419626 21.2269177,18.4541537 C21.5008895,18.7655087 21.7320813,19.0553548 21.9544034,19.335552 L21.9543915,19.3356072 Z" id="Shape" transform="translate(40.500000, 38.500000) rotate(171.000000) translate(-40.500000, -38.500000) "></path>
            </g>
        </g>
    </g>
</svg>