<?xml version="1.0" encoding="UTF-8"?>
<svg width="19px" height="32px" viewBox="0 0 19 32" version="1.1" xmlns="http://www.w3.org/2000/svg" xmlns:xlink="http://www.w3.org/1999/xlink">
    <!-- Generator: Sketch 51.1 (57501) - http://www.bohemiancoding.com/sketch -->
    <title>Shape</title>
    <desc>Created with Sketch.</desc>
    <defs></defs>
    <g id="Twin-Oaks-Website" stroke="none" stroke-width="1" fill="none" fill-rule="evenodd">
        <g id="Desktop-HD-Copy-11" transform="translate(-136.000000, -2853.000000)" fill="#000000" fill-rule="nonzero">
            <path d="M145.499938,2853.00025 C140.286064,2853.00025 136,2857.04801 136,2862.82213 C136,2865.0759 137.254957,2868.01557 138.009667,2869.66561 L144.837748,2884.5803 L144.838003,2884.58005 C144.958044,2884.83633 145.216232,2885 145.500127,2885 C145.784023,2885 146.042237,2884.83633 146.162252,2884.58005 L152.990333,2869.66535 C153.744977,2868.01525 155,2865.07584 155,2862.82187 C155,2857.04782 150.713871,2853 145.500062,2853 L145.499938,2853.00025 Z M145.499938,2858.09295 C147.921443,2858.09295 149.884459,2860.04732 149.884459,2862.45816 C149.884459,2864.869 147.921443,2866.82337 145.499938,2866.82337 C143.078432,2866.82337 141.115416,2864.869 141.115416,2862.45816 C141.115416,2860.04732 143.078432,2858.09295 145.499938,2858.09295 Z" id="Shape"></path>
        </g>
    </g>
</svg>