<?xml version="1.0" encoding="UTF-8"?>
<svg width="24px" height="19px" viewBox="0 0 24 19" version="1.1" xmlns="http://www.w3.org/2000/svg" xmlns:xlink="http://www.w3.org/1999/xlink">
    <!-- Generator: Sketch 51.1 (57501) - http://www.bohemiancoding.com/sketch -->
    <title>Logo white</title>
    <desc>Created with Sketch.</desc>
    <defs></defs>
    <g id="Twin-Oaks-Website" stroke="none" stroke-width="1" fill="none" fill-rule="evenodd">
        <g id="Desktop-HD-Copy-11" transform="translate(-1225.000000, -21.000000)" fill="#000000" fill-rule="nonzero">
            <g id="Group-9" transform="translate(0.000000, -1.000000)">
                <g id="Group-10">
                    <g id="Logo-white" transform="translate(1225.000000, 22.000000)">
                        <path d="M21.5429616,4.73000075 C21.5575868,4.93613774 21.5575868,5.14227473 21.5575868,5.35031159 C21.5575868,11.6892615 16.6045094,19 7.54759293,19 L7.54759293,18.9962002 C4.87215113,19 2.25228519,18.2533471 0,16.845536 C0.389031079,16.8911331 0.780012188,16.9139317 1.17196831,16.9148816 C3.38915296,16.9167815 5.54296161,16.1919772 7.28726386,14.8573115 C5.18025594,14.818364 3.33260207,13.4798984 2.68714199,11.5258718 C3.42522852,11.664563 4.1857404,11.6360648 4.91017672,11.443227 C2.61304083,10.9910555 0.960390006,9.02467966 0.960390006,6.74102381 C0.960390006,6.72012513 0.960390006,6.70017639 0.960390006,6.68022765 C1.6448507,7.0516542 2.41121268,7.25779119 3.19512492,7.28058975 C1.03156612,5.87182868 0.364655698,3.06760568 1.67117611,0.875144076 C4.17111517,3.8722049 7.85959781,5.69418989 11.8191347,5.88702772 C11.4223035,4.22083289 11.9644119,2.4748431 13.2436319,1.30356703 C15.2268129,-0.512718319 18.3458867,-0.419624196 20.2101158,1.5116039 C21.312858,1.29976727 22.3697745,0.905542157 23.3369896,0.346977415 C22.9694089,1.45745732 22.2001219,2.40074778 21.1724558,3.00015994 C22.1484461,2.88806702 23.102011,2.63348309 24,2.24495761 C23.3389397,3.21009669 22.5062767,4.05079362 21.5429616,4.73000075 Z" id="white_background"></path>
                    </g>
                </g>
            </g>
        </g>
    </g>
</svg>